<svg width="14" height="17" viewBox="0 0 14 17" fill="none" xmlns="http://www.w3.org/2000/svg">
<path fill-rule="evenodd" clip-rule="evenodd" d="M6.81906 15.7791C6.78555 15.7567 6.71891 15.7107 6.59184 15.6238C0.0599506 11.1571 1.13186 6.05447 1.13186 6.05447L1.13234 6.05419C1.32735 3.08304 3.7986 0.733398 6.81906 0.733398C9.83953 0.733398 12.3108 3.08304 12.5058 6.05419L12.5063 6.05447C12.5063 6.05447 13.5782 11.1571 7.04628 15.6238C6.91921 15.7107 6.85257 15.7567 6.81906 15.7791ZM6.81906 4.40281C7.94029 4.40281 8.8492 5.31175 8.8492 6.43298C8.8492 7.5542 7.94029 8.46311 6.81906 8.46311C5.69784 8.46311 4.78893 7.5542 4.78893 6.43298C4.78893 5.31175 5.69784 4.40281 6.81906 4.40281Z" stroke="white" stroke-miterlimit="22.9256"/>
</svg>
