<svg width="96" height="96" viewBox="0 0 96 96" fill="none" xmlns="http://www.w3.org/2000/svg">
<path fill-rule="evenodd" clip-rule="evenodd" d="M48 1C73.9573 1 95 22.0426 95 48C95 73.9573 73.9573 95 48 95C22.0426 95 1 73.9573 1 48C1 22.0426 22.0426 1 48 1ZM73.6645 36.6277C73.6645 44.1458 70.3646 50.2269 66.0787 56.1878C64.4333 58.4763 61.6912 61.7371 59.7374 63.6909L57.3946 66.0355C57.0737 66.3603 56.8857 66.454 56.5745 66.7422L54.8891 68.2181C51.2274 71.4113 45.5019 74.7008 40.5055 75.3107C39.9564 75.3778 39.6735 75.4421 39.1083 75.4401C38.4731 75.437 38.0366 75.5677 37.5893 75.5442L34.8058 75.2683C30.7546 74.5478 28.5241 73.0796 25.6706 70.5581C25.0924 70.0475 23.6676 68.8479 23.2502 68.2911C21.8422 66.4159 22.1616 64.9212 23.5165 63.1183C24.7641 61.4594 28.4225 58.3198 30.1222 57.188C32.3504 55.7048 34.7004 54.8953 37.1798 56.3231C37.8099 56.6851 38.3317 57.2488 38.8719 57.6838L40.4775 59.1308C40.8762 59.6526 41.5109 60.2674 42.0524 60.6087C45.9323 63.055 50.9275 57.5957 53.3625 55.1355C53.6703 54.8235 53.7569 54.6239 54.0666 54.3139L56.7668 51.0188C56.9733 50.7252 57.213 50.4383 57.4208 50.1455C58.4704 48.6604 60.2546 45.6781 60.2546 43.8226C60.2546 42.2875 60.1336 41.4767 58.812 40.2513L56.4722 38.4482C53.4268 35.884 52.3696 34.305 53.9473 30.1013C54.4219 28.8353 56.2018 26.0817 57.0065 24.8752C58.6284 22.4435 60.9684 19.0971 64.298 21.0294C64.9855 21.4284 66.7595 23.0833 67.7158 23.8246C71.1914 26.5231 73.6645 31.9011 73.6645 36.6277V36.6277Z" stroke="#5B9DFF" stroke-width="1.2" stroke-miterlimit="22.9256"/>
</svg>
