<svg width="15" height="15" viewBox="0 0 15 15" fill="none" xmlns="http://www.w3.org/2000/svg">
<path fill-rule="evenodd" clip-rule="evenodd" d="M7.45341 0.733398C11.0175 0.733398 13.9068 3.62269 13.9068 7.18681C13.9068 10.7509 11.0175 13.6402 7.45341 13.6402C3.88929 13.6402 1 10.7509 1 7.18681C1 3.62269 3.88929 0.733398 7.45341 0.733398ZM10.9773 5.62531C10.9773 6.65761 10.5242 7.49258 9.93573 8.31105C9.70981 8.62527 9.3333 9.07301 9.06503 9.34128L8.74335 9.66321C8.69929 9.7078 8.67348 9.72066 8.63075 9.76024L8.39933 9.96288C7.89655 10.4013 7.11041 10.853 6.42437 10.9367C6.34897 10.946 6.31013 10.9548 6.23252 10.9545C6.14531 10.9541 6.08537 10.972 6.02395 10.9688L5.64177 10.9309C5.0855 10.832 4.77924 10.6304 4.38744 10.2842C4.30804 10.2141 4.11241 10.0494 4.0551 9.97291C3.86177 9.71544 3.90563 9.5102 4.09166 9.26265C4.26297 9.03487 4.76529 8.60378 4.99867 8.44839C5.30462 8.24473 5.62729 8.13358 5.96773 8.32963C6.05424 8.37934 6.12589 8.45673 6.20006 8.51646L6.42052 8.71515C6.47527 8.78679 6.56241 8.87121 6.63676 8.91807C7.16951 9.25396 7.85537 8.50437 8.18971 8.16656C8.23199 8.12372 8.24387 8.09631 8.28639 8.05375L8.65715 7.60132C8.68551 7.561 8.71842 7.52161 8.74696 7.4814C8.89106 7.27749 9.13605 6.868 9.13605 6.61323C9.13605 6.40245 9.11944 6.29112 8.93796 6.12286L8.6167 5.87528C8.19854 5.5232 8.05338 5.30639 8.27001 4.7292C8.33518 4.55537 8.57957 4.17728 8.69006 4.01162C8.91276 3.67773 9.23406 3.21825 9.69123 3.48357C9.78563 3.53836 10.0292 3.76558 10.1605 3.86737C10.6377 4.23789 10.9773 4.97633 10.9773 5.62531V5.62531Z" stroke="white" stroke-miterlimit="22.9256"/>
</svg>
