<svg width="23" height="23" viewBox="0 0 23 23" fill="none" xmlns="http://www.w3.org/2000/svg">
<path fill-rule="evenodd" clip-rule="evenodd" d="M11.4598 1C17.2365 1 21.9195 5.68301 21.9195 11.4598C21.9195 17.2365 17.2365 21.9195 11.4598 21.9195C5.68301 21.9195 1 17.2365 1 11.4598C1 5.68301 5.68301 1 11.4598 1ZM17.1714 8.92887C17.1714 10.602 16.437 11.9554 15.4831 13.282C15.117 13.7912 14.5067 14.517 14.0719 14.9518L13.5505 15.4736C13.4791 15.5458 13.4373 15.5667 13.368 15.6308L12.9929 15.9593C12.178 16.6699 10.9038 17.402 9.79189 17.5377C9.66968 17.5527 9.60673 17.567 9.48094 17.5665C9.33958 17.5658 9.24243 17.5949 9.14289 17.5897L8.52343 17.5283C7.62183 17.3679 7.12543 17.0412 6.49041 16.48C6.36172 16.3664 6.04463 16.0994 5.95174 15.9755C5.6384 15.5582 5.70949 15.2256 6.011 14.8243C6.28866 14.4551 7.10283 13.7564 7.4811 13.5046C7.97699 13.1745 8.49997 12.9943 9.05176 13.3121C9.19198 13.3926 9.30811 13.5181 9.42833 13.6149L9.78564 13.9369C9.87439 14.053 10.0156 14.1899 10.1361 14.2658C10.9996 14.8102 12.1113 13.5953 12.6532 13.0478C12.7217 12.9783 12.741 12.9339 12.8099 12.8649L13.4108 12.1316C13.4568 12.0663 13.5101 12.0024 13.5564 11.9372C13.7899 11.6068 14.187 10.943 14.187 10.5301C14.187 10.1885 14.1601 10.008 13.866 9.73531L13.3452 9.33403C12.6675 8.76337 12.4322 8.41196 12.7833 7.47644C12.889 7.1947 13.2851 6.58189 13.4641 6.31338C13.8251 5.77221 14.3459 5.02747 15.0869 5.45751C15.2399 5.54631 15.6347 5.91459 15.8475 6.07958C16.621 6.68012 17.1714 7.87699 17.1714 8.92887V8.92887Z" stroke="#003D9E" stroke-width="1.7" stroke-miterlimit="22.9256"/>
</svg>
