<svg width="74" height="74" viewBox="0 0 74 74" fill="none" xmlns="http://www.w3.org/2000/svg">
<path d="M43.5106 1.39607H5.71653C5.29879 1.42575 1.39629 1.81284 1.39629 5.95293V62.6377C1.39629 62.6509 1.36874 67.1834 6.06179 67.1834H22.365C21.8219 66.5315 21.6647 65.8807 21.6515 65.3695C20.4829 65.3068 18.3402 64.9794 17.4794 63.4491C17.4068 63.3172 17.3442 63.1731 17.2947 63.0225C16.9594 62.0012 17.3036 60.7392 17.9786 59.6113C18.6173 58.5428 19.5715 57.5622 20.5103 57.0345C20.74 56.9059 20.9732 56.8003 21.203 56.7256C22.1132 56.4298 22.9431 56.4585 23.6423 56.641C24.6867 56.9125 25.4541 57.5423 25.7927 57.9359L26.1542 58.3658C26.8534 57.7205 27.9989 56.9939 29.4896 57.1994C30.5054 57.3391 31.2311 57.7083 31.7467 58.159C32.5052 58.8241 32.7942 59.6575 32.8954 60.2336L32.9272 60.4126C33.7758 60.3895 35.2239 60.4699 36.2166 61.1581C36.8806 61.6187 37.2257 62.2419 37.3752 62.8685C37.5873 63.7645 37.3917 64.6879 37.218 65.1211L37.151 65.2806C38.2207 65.418 39.7673 65.8093 40.3367 66.9251L40.5115 67.3066C40.5807 67.5067 40.6424 67.6573 40.6809 67.8585C40.7688 68.2872 40.9447 69.1843 39.8839 70.6596C40.8953 71.3489 43.0422 72.6637 44.6396 72.6C44.9287 72.589 45.5376 72.491 46.0631 72.2019C46.2885 72.0777 46.4952 71.9184 46.6293 71.7205C46.7546 71.538 46.8284 71.3037 46.8174 71.0113C46.8042 70.7024 46.6997 70.3265 46.4711 69.8703L44.5286 68.8644L45.166 67.6266L47.4957 68.8337L47.5451 68.9226C47.7759 69.126 48.6676 69.7725 50.8476 69.9165C51.4302 69.955 51.9546 69.7899 52.3592 69.5096C52.678 69.2886 52.9285 68.9941 53.0769 68.6709C53.2177 68.3642 53.2705 68.0311 53.2111 67.7178C53.1595 67.4485 53.0209 67.1802 52.7824 66.9395L52.4392 66.7482C49.1753 65.3234 47.7583 64.1789 47.7847 63.7194C47.6198 63.5413 47.6769 63.4777 47.9683 63.5305C48.53 63.3634 50.3616 63.9075 53.1033 65.5224L53.5111 65.7214C53.7145 65.8973 54.0025 66.0183 54.2433 66.1491C54.871 66.4844 55.5198 66.7514 56.142 66.7866C56.6883 66.8185 57.2413 66.6657 57.7832 66.2073C57.9009 66.0017 58.0954 65.6081 58.1339 65.2035C58.2075 64.4263 57.8228 63.8635 57.8228 63.8635L54.9271 60.9679L58.932 62.8939C59.5927 63.2182 60.5348 63.6776 61.2768 63.6007C61.5968 63.5666 61.9134 63.4239 62.1894 63.2447C62.6126 62.9688 62.9302 62.6245 63.0665 62.4168C63.227 62.1727 63.2689 61.8473 63.2249 61.512C63.17 61.0898 62.982 60.6633 62.7225 60.3379C62.4664 60.0169 61.4132 59.3794 60.3678 58.7956L57.8964 57.4831L54.7259 54.3126C57.372 55.6549 59.8796 56.9554 62.4949 58.3439L66.3119 56.4913L66.6196 56.6453C66.6196 56.6453 67.3231 57.0346 68.1421 57.0609C68.4092 57.0697 68.7292 57.0004 69.0293 56.9102C69.3646 56.8102 69.6758 56.6805 69.9023 56.5871C70.3585 56.398 71.184 56.0474 71.8326 55.623C72.2855 55.3273 72.6528 55.0272 72.5989 54.8623C72.1812 53.5849 70.2156 50.7837 68.173 47.8727L65.1091 43.4258L63.9185 41.7394C63.1291 40.6302 62.5532 39.8179 62.373 39.4815C62.2883 39.3452 61.5232 38.1369 61.1362 38.193C60.547 38.2788 58.6781 39.4078 58.6737 39.41L57.6183 40.0432V15.6193C57.6183 15.6171 57.7336 14.499 57.4324 13.3865C57.3379 13.0358 57.1984 12.6731 57.0038 12.3389C56.8455 12.063 56.6399 11.8013 56.3827 11.5726C54.6149 9.99948 45.3036 1.99756 45.2783 1.97558L45.2431 1.94573C45.2431 1.94573 45.0254 1.75788 44.4955 1.58308C44.3614 1.53911 44.2063 1.49623 44.0382 1.46435C43.8732 1.43246 43.6953 1.40816 43.5106 1.39607ZM5.70129 0L43.5512 0.00214713C43.8271 0.0164385 44.0788 0.0505006 44.3031 0.0944739C44.5329 0.138447 44.743 0.196763 44.9288 0.257227C45.7566 0.529861 46.2304 0.958695 46.2304 0.958695C46.8427 1.48528 55.5284 8.94517 57.3104 10.5304C57.6776 10.858 57.9734 11.2363 58.2064 11.6353C58.4714 12.086 58.6562 12.5654 58.7804 13.026C59.1596 14.4288 59.0144 15.616 59.0144 15.6193V37.6191C59.6729 37.2673 60.4798 36.8792 60.9404 36.8122C62.2222 36.6264 63.5712 38.7724 63.5745 38.779L63.5998 38.8251C63.7065 39.0373 64.2703 39.8321 65.0519 40.9336L66.2457 42.6234L69.3108 47.0712C71.4171 50.0702 73.4421 52.9569 73.9248 54.4311C74.237 55.3821 73.5356 56.1759 72.5957 56.7904C71.8514 57.2763 70.94 57.6643 70.4365 57.8732C70.1727 57.982 69.8143 58.1305 69.4274 58.247C69.0096 58.3723 68.5457 58.4668 68.0983 58.4525C67.3475 58.4294 66.6845 58.1986 66.313 58.0392L63.6735 59.3199L63.813 59.4717C64.2209 59.9851 64.5187 60.6601 64.6056 61.3318C64.6902 61.9749 64.588 62.6322 64.2274 63.1796C64.0142 63.5039 63.5436 64.0229 62.9477 64.4121C62.5091 64.6979 61.987 64.9267 61.4241 64.986C60.7678 65.0542 60.1061 64.8946 59.508 64.6725C59.5333 64.8847 59.541 65.1069 59.519 65.3356C59.42 66.3744 58.9386 66.9757 58.9386 66.9768L58.8791 67.0934L58.7804 67.1834C57.8987 67.9727 56.9796 68.2322 56.0627 68.1784C55.5746 68.1498 55.0942 68.0301 54.627 67.8542C54.6489 68.3357 54.5467 68.816 54.3412 69.2569C54.0883 69.8011 53.675 70.2923 53.1506 70.6551C52.5031 71.1047 51.6742 71.3676 50.7595 71.3083C49.68 71.2368 48.8391 71.0432 48.2004 70.8189L48.2092 70.9563C48.2345 71.5786 48.064 72.0897 47.7793 72.5053C47.5067 72.9054 47.1329 73.2046 46.7339 73.4245C45.9863 73.8356 45.1112 73.9753 44.6945 73.9917C42.0352 74.0984 38.4668 71.36 38.4569 71.3523L37.8776 70.9014L38.3579 70.3463C39.5012 69.0205 39.3705 68.4027 39.3145 68.1311L39.2221 67.8331L39.0922 67.5583C38.5898 66.5733 36.0615 66.603 36.0549 66.603H34.3696L35.5613 65.4114C35.5613 65.4114 35.7273 65.0959 35.9252 64.6023C36.034 64.3319 36.1549 63.7537 36.0197 63.1897C35.9383 62.861 35.7613 62.5367 35.4249 62.3036C34.3773 61.578 32.4678 61.833 32.4634 61.833L31.7817 61.9463L31.5212 60.4732C31.4586 60.1159 31.2828 59.6026 30.8298 59.2057C30.5011 58.9177 30.0129 58.679 29.2983 58.58C27.6361 58.3503 26.4687 60.1147 26.4654 60.118L25.7849 60.9668L25.3001 59.9961C25.3001 59.995 25.4684 59.6904 24.7395 58.8461C24.5174 58.5888 24.0062 58.1734 23.2928 57.9887C22.8222 57.8667 22.2583 57.8491 21.6339 58.0514C21.4932 58.0965 21.3424 58.1656 21.1918 58.2502C20.4552 58.6636 19.6935 59.4541 19.1724 60.3259C18.6876 61.1361 18.4215 61.987 18.6172 62.5894L18.6942 62.7674C19.4561 64.1207 22.4352 63.9801 22.4429 63.9801H23.5697L23.0652 64.9892C23.0652 64.9903 22.6573 65.9303 24.1458 66.9109L24.458 67.0966L24.7547 67.2439L27.8417 68.5797H6.06179C-0.0351052 68.5797 4.55179e-06 62.6542 4.55179e-06 62.6377V5.95293C4.55179e-06 0.248492 5.63525 0.00324647 5.64954 0.00214713L5.70129 0Z" fill="#003D9E"/>
<path d="M58.1482 14.0019C55.6714 14.0019 52.9802 14.115 50.5463 13.9996C50.5298 13.9985 44.124 13.7951 44.124 9.07897V0.955078H45.5203V9.07897C45.5203 12.244 50.087 12.5793 50.5927 12.6056H58.1482V14.0019Z" fill="#003D9E"/>
<path d="M9.33496 11.9609H29.6232V13.3572H9.33496V11.9609Z" fill="#003D9E"/>
<path d="M9.33496 19.9668H49.586V21.3629H9.33496V19.9668Z" fill="#003D9E"/>
<path d="M9.33496 27.9883H49.586V29.3843H9.33496V27.9883Z" fill="#003D9E"/>
<path d="M11.3175 53.5821C11.1944 53.8855 10.769 55.0849 11.499 55.5774C12.6621 56.3624 14.2957 57.0132 14.5859 57.1253C14.8146 57.1913 16.7186 57.6575 18.2422 55.4368C20.2419 52.5214 26.0111 43.5363 26.4464 42.858C26.5377 42.625 27.1225 40.9916 25.944 40.0099C24.4006 38.7236 23.1354 38.3838 23.1332 38.3838C23.131 38.3838 21.9877 38.0398 21.2918 38.9017C20.3189 40.1088 11.9683 52.6081 11.3175 53.5821ZM10.7183 56.7339C8.86698 55.485 10.0522 52.9984 10.0544 52.9929L10.1259 52.8598C10.1511 52.8224 19.2316 39.2369 20.2056 38.0287C21.4962 36.4292 23.4672 37.0305 23.4716 37.0316C23.4749 37.0316 25.0448 37.4505 26.8323 38.9412C28.8946 40.6584 27.6822 43.5013 27.6789 43.509L27.6405 43.5793C27.6229 43.6067 21.151 53.6579 19.392 56.2216C17.1813 59.4448 14.1878 58.4622 14.1801 58.46L14.112 58.4357C14.1076 58.4346 12.1276 57.6848 10.7183 56.7339Z" fill="#003D9E"/>
<path d="M27.2629 42.7441C27.2717 42.7485 30.8774 44.5515 33.2212 43.5302C34.5909 42.9333 35.7497 42.544 36.7457 42.3604C37.8032 42.1659 38.6971 42.1976 39.4809 42.4483C40.9705 42.9243 42.0312 43.7962 42.0334 43.7984L41.0464 44.7856C41.0453 44.7845 40.267 44.1611 39.0588 43.7741C38.4981 43.5949 37.824 43.5784 36.9963 43.7301C36.1047 43.895 35.0472 44.2524 33.7775 44.8054C30.8368 46.0872 26.6516 43.9941 26.6406 43.9886L27.2629 42.7441Z" fill="#003D9E"/>
<path d="M62.0857 39.0588C62.0857 39.0577 61.524 38.0958 61.092 38.1969C60.3466 38.3706 57.6247 40.0195 57.2993 40.2174C57.1718 40.3361 56.3946 41.1266 56.8035 42.2468L57.0079 42.6634L57.4794 43.4759C59.6506 47.0564 65.7103 55.7158 66.0368 56.182C66.1545 56.3161 67.3868 57.632 69.4733 56.7679C70.7288 56.249 71.6114 55.762 72.128 55.3025C72.4743 54.9936 72.6118 54.7351 72.547 54.5274C72.26 53.6072 62.1692 39.1918 62.1407 39.1511L62.0857 39.0588ZM60.7753 36.838C61.9494 36.5632 63.0126 37.9737 63.2709 38.3474C63.3039 38.3848 73.5451 53.0466 73.8771 54.1119C74.1212 54.8946 73.8553 55.6334 73.056 56.3447C72.4272 56.9032 71.4124 57.4714 70.003 58.054C66.8633 59.3524 64.9451 57.0427 64.9407 57.0372L64.9165 57.0054C64.8989 56.9801 58.5394 47.905 56.2901 44.1947L55.7856 43.3296C55.6536 43.0867 55.5535 42.8801 55.4963 42.7218C54.7213 40.6012 56.4768 39.0928 56.4812 39.0895L56.5308 39.0543C56.5385 39.0499 59.787 37.0678 60.7753 36.838Z" fill="#003D9E"/>
<path d="M57.2449 44.6865C57.2361 44.6898 53.9656 45.9068 50.7412 44.592C49.3264 44.016 48.2919 43.7402 47.3509 43.6896C46.4198 43.6401 45.5359 43.8094 44.4289 44.1205L44.2552 44.1678C42.1489 44.7592 39.7775 45.4241 39.595 46.8489C39.4565 47.9383 39.3576 49.8953 39.4664 51.4762C39.5346 52.459 39.6545 53.2428 39.8458 53.4011C40.102 53.6132 40.6482 53.6296 41.2638 53.5065C41.9817 53.3592 42.7448 53.0118 43.2802 52.5347C44.308 51.6201 44.4113 49.9127 44.4113 49.9083V48.7465C49.6232 51.5168 58.4136 55.4865 62.867 58.5482C62.8736 58.5526 65.5196 60.5894 64.472 62.743C63.9893 63.7368 63.2813 64.423 62.4129 64.7616C61.5609 65.0958 60.5782 65.0858 59.5228 64.6999L59.5359 65.0078C59.5359 65.6971 59.3425 66.4303 58.884 67.0723C57.854 68.5212 55.3069 68.1463 55.3003 68.1452L55.1978 68.1276L54.6868 67.8715C54.7011 68.3079 54.6099 68.7455 54.4307 69.1533C54.2009 69.6799 53.8204 70.1647 53.3367 70.5384C52.6529 71.065 51.7536 71.3829 50.7543 71.3114C50.0398 71.2597 49.1549 71.0013 48.2325 70.6473L48.2589 70.9442C48.2776 71.4422 48.1677 71.906 47.9478 72.315C47.7302 72.7184 47.4026 73.067 46.9859 73.3385C46.3967 73.7233 45.6149 73.9608 44.6904 73.9949C41.9135 74.0982 38.4672 71.3631 38.4573 71.3554L39.3125 70.2537C39.3202 70.2603 42.3852 72.6878 44.6421 72.6031C45.3028 72.5789 45.8437 72.4218 46.2273 72.1711C46.4461 72.0293 46.6154 71.8521 46.721 71.6554C46.8243 71.463 46.876 71.2377 46.8672 70.9925C46.8551 70.6682 46.7386 70.2989 46.5067 69.902C44.4256 68.9192 42.5907 67.7846 42.5819 67.7802L43.2746 66.5688C43.2889 66.5765 48.4579 69.7448 50.8533 69.9196C51.4887 69.9647 52.0582 69.7667 52.4858 69.4369C52.7848 69.205 53.019 68.9103 53.1553 68.597C53.2839 68.3024 53.3312 67.9892 53.2729 67.7012C53.2147 67.4154 53.0465 67.135 52.7475 66.8975L45.4204 63.2191L46.0427 61.9748L55.6189 66.782C55.974 66.8216 57.2845 66.9195 57.7495 66.2654C58.0232 65.8806 58.1398 65.4333 58.1398 65.0078C58.1398 64.5824 58.0288 64.1909 57.8485 63.9139C54.5604 62.2308 48.3161 58.6382 48.2952 58.6261L48.9943 57.4214C49.0196 57.4357 58.2408 62.7443 59.9887 63.3874C60.7187 63.6556 61.3708 63.6742 61.9051 63.4653C62.4404 63.2587 62.89 62.8058 63.2165 62.1352C63.7409 61.0523 62.3029 59.8728 62.1127 59.7244L45.6293 50.9748C45.4326 51.7718 45.0291 52.847 44.2079 53.5769C43.4912 54.2145 42.4842 54.6774 41.5431 54.8686C40.5351 55.0709 39.5567 54.9719 38.9576 54.4761C38.4266 54.0375 38.1659 52.8987 38.0747 51.5685C37.9603 49.9085 38.066 47.8374 38.2144 46.6754C38.5146 44.3316 41.3552 43.5357 43.8792 42.8277L44.0529 42.7803C45.3007 42.4296 46.312 42.2385 47.4246 42.2978C48.5316 42.3583 49.7035 42.6627 51.2645 43.2992C53.993 44.4118 56.7524 43.385 56.759 43.3828L57.2449 44.6865Z" fill="#003D9E"/>
<path d="M66.2795 58.0086L62.7932 59.7469L62.1709 58.498L65.6572 56.7598L66.2795 58.0086Z" fill="#003D9E"/>
<path d="M21.6536 65.3673C20.4851 65.3046 18.3423 64.9772 17.4815 63.4469C17.409 63.315 17.3464 63.1709 17.2969 63.0203C16.9616 61.999 17.3058 60.737 17.9808 59.6091C18.6195 58.5406 19.5736 57.56 20.5124 57.0323C20.7422 56.9037 20.9753 56.7981 21.2051 56.7234C22.1187 56.4288 22.9464 56.4574 23.6445 56.6388C24.6888 56.9103 25.4541 57.5391 25.7937 57.9337L26.1553 58.3646C26.8534 57.7193 28 56.9906 29.4918 57.1972C30.5075 57.3369 31.2332 57.7061 31.7488 58.1568C32.5074 58.8219 32.7964 59.6553 32.8975 60.2314L32.9293 60.4104C33.778 60.3874 35.226 60.4677 36.2187 61.1559C36.8827 61.6165 37.2278 62.2397 37.3773 62.8663C37.5895 63.7623 37.3938 64.6858 37.2202 65.1189L37.1532 65.2784C38.2228 65.4158 39.7694 65.8071 40.3389 66.9229C40.772 67.7727 40.8765 68.5093 40.6852 69.2459C40.5049 69.9352 40.0631 70.5761 39.3903 71.2786L38.8945 71.8173C37.9326 72.8902 37.3554 73.53 35.4041 73.4036C34.4873 73.3442 33.7814 72.9826 33.2636 72.5319C32.6887 72.0262 32.3413 71.3741 32.1808 70.8904C31.2101 71.2092 29.6501 71.5303 28.4815 70.8477C27.4778 70.2617 27.0052 69.4306 26.7831 68.7974C26.0213 68.9689 24.7911 68.9962 23.3851 68.0695C21.9988 67.157 21.6723 66.1138 21.6536 65.3673ZM18.6964 62.7652C19.4582 64.1185 22.4374 63.9779 22.4451 63.9779H23.5719L23.0673 64.9871C23.0673 64.9882 22.6595 65.9281 24.148 66.9087C25.7772 67.9828 26.971 67.2583 26.9732 67.2572L27.9823 66.7526V67.8795C27.9823 67.8817 28.0199 68.9622 29.1851 69.6427C30.3625 70.3298 32.4577 69.291 32.4621 69.2888L33.4715 68.784V70.3706C33.4715 70.5421 33.6847 71.0477 34.1794 71.4808C34.4971 71.7535 34.9302 71.9756 35.4919 72.0118C36.7748 72.0954 37.1817 71.6446 37.8589 70.8893L38.3822 70.3188C38.8978 69.7823 39.2253 69.3273 39.3374 68.8963C39.4375 68.5094 39.3637 68.0838 39.0944 67.5561C38.592 66.5711 36.0636 66.6008 36.0571 66.6008H34.3718L35.5634 65.4092C35.5634 65.4092 35.7295 65.0937 35.9274 64.6001C36.0362 64.3297 36.1571 63.7515 36.0218 63.1875C35.9405 62.8588 35.7635 62.5345 35.4271 62.3014C34.3794 61.5759 32.4699 61.8308 32.4655 61.8308L31.7838 61.9441L31.5234 60.471C31.4607 60.1137 31.2849 59.6004 30.832 59.2035C30.5033 58.9155 30.015 58.6768 29.3004 58.5779C27.6383 58.3481 26.4708 60.1126 26.4675 60.1158L25.7871 60.9646L25.3023 59.9939C25.3023 59.9928 25.3452 59.5442 24.7406 58.8439C24.5185 58.5866 24.0084 58.1712 23.2949 57.9865C22.8244 57.8634 22.2616 57.8459 21.636 58.0482C21.4953 58.0943 21.3446 58.1634 21.1939 58.2481C20.4574 58.6614 19.6956 59.4519 19.1746 60.3237C18.6898 61.1339 18.4236 61.9848 18.6193 62.5872L18.6964 62.7652Z" fill="#003D9E"/>
<path d="M21.8691 64.2767L25.3486 59.2832L26.4942 60.079L23.0147 65.0725L21.8691 64.2767Z" fill="#003D9E"/>
<path d="M26.7266 67.4685L31.7937 60.7324L32.9063 61.5679L27.8391 68.304L26.7266 67.4685Z" fill="#003D9E"/>
<path d="M32.2344 69.4751L35.5182 65.4668L36.5979 66.3506L33.3138 70.3592L32.2344 69.4751Z" fill="#003D9E"/>
<path d="M18.8405 59.6218L16.5713 58.0882L17.3518 56.9316L19.6211 58.4652L18.8405 59.6218Z" fill="#003D9E"/>
</svg>
