<svg width="80" height="79" viewBox="0 0 80 79" fill="none" xmlns="http://www.w3.org/2000/svg">
<path d="M8.16248 64.8551V37.1935H2L15.6041 19.0625L28.8592 36.9612H22.8128V51.1407" stroke="#003D9E" stroke-width="1.2" stroke-miterlimit="22.9256"/>
<path d="M12.4642 37.1953H8.16211" stroke="#003D9E" stroke-width="1.2" stroke-miterlimit="22.9256"/>
<path d="M57.3031 64.8551V37.1935H51.1406L64.7447 19.0625L77.9998 36.9612H71.9536V51.1407" stroke="#003D9E" stroke-width="1.2" stroke-miterlimit="22.9256"/>
<path d="M61.6048 37.1953H57.3027" stroke="#003D9E" stroke-width="1.2" stroke-miterlimit="22.9256"/>
<path d="M32.6996 25.4941V20.131H26.5371L40.1409 2L53.3961 19.8984H47.3499V25.4941" stroke="#003D9E" stroke-width="1.2" stroke-miterlimit="22.9256"/>
<path d="M37.0013 20.1309H32.6992" stroke="#003D9E" stroke-width="1.2" stroke-miterlimit="22.9256"/>
<path d="M25.4375 61.1781V78.5616V66.975V61.1781ZM25.4375 61.1781C25.4375 61.1781 25.5596 58.2751 27.5253 57.4659M25.4375 61.1781L25.6012 60.1251L26 58.9978L26.5 58.2238L27.5253 57.4659M27.5253 57.4659C29.4908 56.657 34.8092 54.6924 34.8092 54.6924M27.5253 57.4659L34.8092 54.6924M34.8092 54.6924L36.2589 51.3984M34.8092 54.6924L40.3012 59.4306M40.3012 52.4769V66.0183M31.3608 72.4477V78.5616M55.1649 78.5616V61.1781M55.1649 61.1781C55.1649 61.1781 55.0426 58.2751 53.0771 57.4659M55.1649 61.1781L55.0761 60.4777L54.8496 59.6002L54.5 58.8023L53.8692 57.9787L53.0771 57.4659M53.0771 57.4659C51.1114 56.657 45.793 54.6924 45.793 54.6924M53.0771 57.4659L45.793 54.6924M45.793 54.6924L44.5213 51.3984" stroke="#003D9E" stroke-width="1.2" stroke-miterlimit="22.9256"/>
<path d="M45.7926 54.6914L40.3008 59.4296" stroke="#003D9E" stroke-width="1.2" stroke-miterlimit="22.9256"/>
<path d="M49.2422 72.4453V78.5592" stroke="#003D9E" stroke-width="1.2" stroke-miterlimit="22.9256"/>
<path fill-rule="evenodd" clip-rule="evenodd" d="M34.3549 49.6229C32.3315 46.6755 32.7361 41.8214 32.7361 41.8214V33.8468C32.7361 33.8468 35.0486 30.8418 39.7314 30.8418C39.9251 30.8418 40.1144 30.8465 40.3004 30.8552C40.4864 30.8465 40.6756 30.8418 40.869 30.8418C45.5519 30.8418 47.8643 33.8468 47.8643 33.8468V41.8214C47.8643 41.8214 48.269 46.6755 46.2457 49.6229C43.6345 53.4261 36.9661 53.4261 34.3549 49.6229Z" stroke="#003D9E" stroke-width="1.2" stroke-miterlimit="22.9256"/>
<path fill-rule="evenodd" clip-rule="evenodd" d="M32.7363 41.4748V33.8468C32.7363 33.8468 35.0488 30.8418 39.7316 30.8418C39.9253 30.8418 40.1146 30.8465 40.3005 30.8552C40.4865 30.8465 40.6758 30.8418 40.8692 30.8418C45.552 30.8418 47.8645 33.8468 47.8645 33.8468V41.4748C45.1474 41.4748 43.8178 38.5277 43.8178 38.5277H36.7833C36.7833 38.5277 35.4537 41.4748 32.7363 41.4748V41.4748Z" stroke="#003D9E" stroke-width="1.2" stroke-miterlimit="22.9256"/>
</svg>
