<svg width="69" height="69" viewBox="0 0 69 69" fill="none" xmlns="http://www.w3.org/2000/svg">
<path fill-rule="evenodd" clip-rule="evenodd" d="M12.5938 1H67.5445V38.2583H19.5071V36.7134L29.9335 30.6573C29.9335 30.6573 31.9153 29.0536 30.7512 27.025C29.5872 24.9968 28.0613 25.4013 25.7478 26.4838C23.4344 27.5663 18.5925 29.9478 18.5925 29.9478H12.5938V28.1952C14.708 27.4018 16.2141 25.3521 16.2141 22.9485C16.2141 20.5447 14.708 18.4953 12.5938 17.7018V1V1Z" stroke="#003D9E" stroke-width="1.2" stroke-miterlimit="22.9256"/>
<path d="M44.3262 9.15625H63.5858" stroke="#003D9E" stroke-width="1.2" stroke-miterlimit="22.9256"/>
<path d="M35.0713 16.1387H63.5841" stroke="#003D9E" stroke-width="1.2" stroke-miterlimit="22.9256"/>
<path d="M35.0713 23.1211H63.5841" stroke="#003D9E" stroke-width="1.2" stroke-miterlimit="22.9256"/>
<path d="M35.0713 30.1035H63.5841" stroke="#003D9E" stroke-width="1.2" stroke-miterlimit="22.9256"/>
<path fill-rule="evenodd" clip-rule="evenodd" d="M3.36497 56.3638L17.3552 56.305V46.9955C17.3552 46.9955 17.3553 45.6967 18.2698 45.4259C19.1845 45.1554 19.5072 44.9388 19.5072 44.9388V36.712L29.9336 30.6559C29.9336 30.6559 31.9155 29.0522 30.7514 27.0236C29.5874 24.9954 28.0615 25.3999 25.748 26.4824C23.4346 27.5649 18.5927 29.9464 18.5927 29.9464H7.18699C7.18699 29.9464 1 29.784 1 35.8458C1 41.908 1 45.1554 1 45.1554L3.43867 46.5718L3.36497 56.3638V56.3638Z" stroke="#003D9E" stroke-width="1.2" stroke-miterlimit="22.9256"/>
<path d="M10.6513 28.5475C13.7245 28.5475 16.2157 26.0412 16.2157 22.9495C16.2157 19.8579 13.7245 17.3516 10.6513 17.3516C7.57819 17.3516 5.08691 19.8579 5.08691 22.9495C5.08691 26.0412 7.57819 28.5475 10.6513 28.5475Z" stroke="#003D9E" stroke-width="1.2" stroke-miterlimit="22.9256"/>
<path d="M32.0091 58.0797C34.4681 58.0797 36.4615 56.0743 36.4615 53.6004C36.4615 51.1266 34.4681 49.1211 32.0091 49.1211C29.5501 49.1211 27.5566 51.1266 27.5566 53.6004C27.5566 56.0743 29.5501 58.0797 32.0091 58.0797Z" stroke="#003D9E" stroke-width="1.2" stroke-miterlimit="22.9256"/>
<path fill-rule="evenodd" clip-rule="evenodd" d="M32.0385 67.9988H21.4817C21.4817 67.9988 21.3188 58.8711 29.6189 58.8711H32.0385H34.4582C42.7583 58.8711 42.5953 67.9988 42.5953 67.9988H32.0385V67.9988Z" stroke="#003D9E" stroke-width="1.2" stroke-miterlimit="22.9256"/>
<path d="M57.4124 58.0797C59.8714 58.0797 61.8648 56.0743 61.8648 53.6004C61.8648 51.1266 59.8714 49.1211 57.4124 49.1211C54.9534 49.1211 52.96 51.1266 52.96 53.6004C52.96 56.0743 54.9534 58.0797 57.4124 58.0797Z" stroke="#003D9E" stroke-width="1.2" stroke-miterlimit="22.9256"/>
<path fill-rule="evenodd" clip-rule="evenodd" d="M57.4418 67.9988H46.885C46.885 67.9988 46.722 58.8711 55.0221 58.8711H57.4418H59.8614C68.1615 58.8711 67.9987 67.9988 67.9987 67.9988H57.4418Z" stroke="#003D9E" stroke-width="1.2" stroke-miterlimit="22.9256"/>
</svg>
