<svg width="72" height="77" viewBox="0 0 72 77" fill="none" xmlns="http://www.w3.org/2000/svg">
<path d="M11.5882 43.7988H3.11777C1.94816 43.7988 1 44.7375 1 45.8954V72.9753C1 74.1332 1.94816 75.0719 3.11777 75.0719H11.5882C12.7578 75.0719 13.706 74.1332 13.706 72.9753V45.8954C13.706 44.7375 12.7578 43.7988 11.5882 43.7988Z" stroke="#003D9E" stroke-width="1.2" stroke-miterlimit="22.9256"/>
<path d="M13.7051 49.041C13.7051 49.041 23.0583 52.5352 31.5291 53.4088C39.9998 54.2825 45.2939 53.7582 45.2939 53.7582C45.2939 53.7582 47.6371 54.1582 48.1371 56.0065C48.6374 57.8546 48.4882 60.7839 48.4882 60.7839" stroke="#003D9E" stroke-width="1.2" stroke-miterlimit="22.9256"/>
<path d="M13.7051 68.5164C13.7051 68.5164 19.2712 74.5968 27.2553 75.4652C36.7525 76.4986 45.7531 76.5019 53.7893 71.1737C57.9644 68.4053 63.5945 64.2683 67.0928 61.6593C68.7967 60.3887 70.8438 59.028 70.9863 57.071C71.0532 56.1506 70.8848 54.9478 69.7211 53.8366C67.2643 51.4914 62.3512 54.0107 59.982 55.3134C57.6132 56.6163 48.4882 60.7857 48.4882 60.7857C48.4882 60.7857 41.5568 63.8258 32.5198 62.6099" stroke="#003D9E" stroke-width="1.2" stroke-miterlimit="22.9256"/>
<path d="M68.8812 1.92773H60.4107C59.2411 1.92773 58.293 2.86642 58.293 4.02433V31.1042C58.293 32.2621 59.2411 33.2008 60.4107 33.2008H68.8812C70.0508 33.2008 70.999 32.2621 70.999 31.1042V4.02433C70.999 2.86642 70.0508 1.92773 68.8812 1.92773Z" stroke="#003D9E" stroke-width="1.2" stroke-miterlimit="22.9256"/>
<path d="M58.2922 27.9577C58.2922 27.9577 48.9389 24.4635 40.4682 23.5899C31.9974 22.7162 26.7033 23.2405 26.7033 23.2405C26.7033 23.2405 24.3601 22.8405 23.8601 20.9922C23.3598 19.1441 23.5091 16.2148 23.5091 16.2148" stroke="#003D9E" stroke-width="1.2" stroke-miterlimit="22.9256"/>
<path d="M58.2938 8.48474C58.2938 8.48474 52.7277 2.40447 44.7436 1.53603C35.2464 0.502693 26.2457 0.499305 18.2095 5.82752C14.0344 8.5959 8.40446 12.7329 4.9061 15.3419C3.20227 16.6125 1.15512 17.9732 1.01262 19.9302C0.945685 20.8506 1.11408 22.0534 2.27783 23.1646C4.73458 25.5097 9.64776 22.9905 12.0169 21.6879C14.3857 20.3849 23.5107 16.2156 23.5107 16.2156C23.5107 16.2156 30.4421 13.1754 39.4791 14.3913" stroke="#003D9E" stroke-width="1.2" stroke-miterlimit="22.9256"/>
</svg>
