<svg width="65" height="77" viewBox="0 0 65 77" fill="none" xmlns="http://www.w3.org/2000/svg">
<path fill-rule="evenodd" clip-rule="evenodd" d="M4.51133 31.4894H14.6176H55.4476C57.3745 31.4894 58.9511 33.0675 58.9511 34.9965V44.3618H51.1093C47.242 44.3618 44.0779 47.5287 44.0779 51.3997C44.0779 55.2706 47.242 58.4375 51.1093 58.4375H58.9511V72.4936C58.9511 74.4224 57.3745 76.0005 55.4476 76.0005H4.51133C2.58441 76.0005 1.00781 74.4224 1.00781 72.4936V41.8754V34.9965V28.0703C1.00781 29.9509 2.54517 31.4894 4.42391 31.4894H4.51133V31.4894Z" stroke="#003D9E" stroke-width="1.2" stroke-miterlimit="22.9256"/>
<path d="M9.71248 22.3145H6.12897C3.2316 22.3145 0.839234 22.2832 1.00846 28.0672" stroke="#003D9E" stroke-width="1.2" stroke-miterlimit="22.9256"/>
<path d="M50.875 51.2812H52.8671" stroke="#003D9E" stroke-width="1.2" stroke-miterlimit="22.9256"/>
<path fill-rule="evenodd" clip-rule="evenodd" d="M51.1094 44.3613H64.0001V58.4371H51.1094C47.2422 58.4371 44.0781 55.2702 44.0781 51.3989C44.0781 47.5282 47.2422 44.3613 51.1094 44.3613Z" stroke="#003D9E" stroke-width="1.2" stroke-miterlimit="22.9256"/>
<path d="M46.4648 22.3613L46.6091 22.3819C47.0071 22.4286 47.3818 22.5078 47.7244 22.6412C48.9072 23.1017 49.7123 24.2109 49.8181 26.8813C49.8327 27.246 49.8342 31.06 49.8217 31.4861" stroke="#003D9E" stroke-width="1.2" stroke-miterlimit="22.9256"/>
<path d="M5.64258 31.4881L18.5329 2.60221L23.1032 4.71347L24.8271 1L50.7163 12.6462L42.4717 31.4881" stroke="#003D9E" stroke-width="1.2" stroke-miterlimit="22.9256"/>
<path d="M11.2656 31.4856L23.1028 4.71094" stroke="#003D9E" stroke-width="1.2" stroke-miterlimit="22.9256"/>
<path d="M16.1973 31.4882L25.2123 11.4895C25.2123 11.4895 27.2193 12.2873 28.8506 11.4123C30.4819 10.5374 30.9479 8.96289 30.9479 8.96289L40.1533 13.1036C40.1533 13.1036 39.6873 15.0279 40.5611 16.7191C41.4352 18.4103 42.8336 19.1686 42.8336 19.1686L37.5317 31.4882" stroke="#003D9E" stroke-width="1.2" stroke-miterlimit="22.9256"/>
<path fill-rule="evenodd" clip-rule="evenodd" d="M26.8571 27.0293C29.2438 27.0293 31.1788 28.9661 31.1788 31.3551C31.1788 31.4004 31.1779 31.4453 31.1767 31.49H22.5375C22.5361 31.4453 22.5352 31.4004 22.5352 31.3551C22.5352 28.9661 24.4701 27.0293 26.8571 27.0293Z" stroke="#003D9E" stroke-width="1.2" stroke-miterlimit="22.9256"/>
</svg>
