<svg width="13" height="16" viewBox="0 0 13 16" fill="none" xmlns="http://www.w3.org/2000/svg">
<path fill-rule="evenodd" clip-rule="evenodd" d="M6.3533 15.0022C6.32212 14.9813 6.2601 14.9385 6.14186 14.8576C0.0634138 10.701 1.06091 5.95265 1.06091 5.95265L1.06136 5.95239C1.24283 3.18751 3.54252 1.00098 6.3533 1.00098C9.16408 1.00098 11.4638 3.18751 11.6452 5.95239L11.6457 5.95265C11.6457 5.95265 12.6432 10.701 6.56475 14.8576C6.4465 14.9385 6.38449 14.9813 6.3533 15.0022ZM6.3533 4.41565C7.39669 4.41565 8.2425 5.2615 8.2425 6.30489C8.2425 7.34827 7.39669 8.19408 6.3533 8.19408C5.30991 8.19408 4.4641 7.34827 4.4641 6.30489C4.4641 5.2615 5.30991 4.41565 6.3533 4.41565Z" stroke="#545454" stroke-width="0.8" stroke-miterlimit="22.9256"/>
</svg>
