<svg width="242" height="50" viewBox="0 0 242 50" fill="none" xmlns="http://www.w3.org/2000/svg">
<path d="M6.03012 39.9492C6.32825 39.9492 6.62577 39.9747 6.9239 40.026C7.22143 40.0773 7.5077 40.1472 7.78231 40.2355C8.05672 40.3239 8.31263 40.4331 8.54985 40.5634C8.78747 40.6938 8.99433 40.838 9.17104 40.9962L8.61277 41.8337C8.23141 41.5454 7.84262 41.3221 7.44719 41.1639C7.05156 41.0056 6.62577 40.9266 6.16983 40.9266C5.83451 40.9266 5.52754 40.9801 5.24831 41.0869C4.96907 41.194 4.72723 41.3661 4.52258 41.6037C4.31773 41.8407 4.1571 42.1455 4.04091 42.5178C3.92471 42.8903 3.86641 43.3368 3.86641 43.8581C3.86641 44.3794 3.92471 44.8259 4.04091 45.1982C4.1571 45.5707 4.32235 45.8754 4.53645 46.1127C4.75035 46.3503 5.00887 46.5222 5.31123 46.6293C5.61378 46.7363 5.94648 46.7897 6.30935 46.7897C6.76549 46.7897 7.19127 46.7107 7.5867 46.5525C7.98254 46.3943 8.37093 46.1708 8.75249 45.8825L9.31096 46.7202C9.13425 46.8784 8.92679 47.0225 8.68977 47.1528C8.45215 47.2833 8.19644 47.3924 7.92163 47.4807C7.64722 47.5691 7.36094 47.6391 7.06322 47.6904C6.76549 47.7414 6.46756 47.7669 6.16983 47.7669C5.50904 47.7669 4.90635 47.6809 4.36195 47.5086C3.81736 47.3365 3.35438 47.0852 2.97282 46.7551C2.59146 46.4245 2.29575 46.0174 2.08648 45.5335C1.8768 45.0494 1.77246 44.4909 1.77246 43.8581C1.77246 43.2345 1.8768 42.6784 2.08648 42.1899C2.29575 41.7014 2.58684 41.2919 2.95895 40.9612C3.33126 40.6309 3.77775 40.3796 4.29923 40.2077C4.8203 40.0353 5.39747 39.9492 6.03012 39.9492ZM14.546 46.7897C15.0022 46.7897 15.428 46.7107 15.8234 46.5525C16.219 46.3943 16.6074 46.1708 16.9892 45.8825L17.5474 46.7202C17.3707 46.8784 17.1635 47.0225 16.9262 47.1528C16.6888 47.2833 16.4331 47.3924 16.1583 47.4807C15.8839 47.5691 15.5976 47.6391 15.2999 47.6904C15.0022 47.7414 14.7042 47.7669 14.4065 47.7669C13.7457 47.7669 13.143 47.6809 12.5986 47.5086C12.054 47.3365 11.5911 47.0852 11.2095 46.7551C10.8281 46.4245 10.5324 46.0174 10.3232 45.5335C10.1135 45.0494 10.0089 44.4909 10.0089 43.8581C10.0089 43.2345 10.1093 42.6784 10.3091 42.1899C10.5093 41.7014 10.7885 41.2919 11.1466 40.9612C11.505 40.6309 11.9308 40.3796 12.4239 40.2077C12.9175 40.0353 13.4619 39.9492 14.0575 39.9492C14.6158 39.9492 15.1417 40.033 15.6348 40.2007C16.1281 40.368 16.5563 40.6124 16.9192 40.9335C17.2821 41.2545 17.5708 41.6433 17.7847 42.0992C17.9987 42.5552 18.1059 43.0718 18.1059 43.6486V44.626H12.1447C12.2567 45.3984 12.5241 45.952 12.9478 46.2873C13.371 46.6223 13.9039 46.7897 14.546 46.7897ZM14.0575 40.8567C13.7877 40.8567 13.5364 40.9077 13.3037 41.0103C13.0711 41.1128 12.8684 41.2754 12.6965 41.4988C12.5241 41.7223 12.3847 42.0108 12.2776 42.3642C12.1702 42.718 12.1121 43.146 12.1031 43.6486H16.0118C16.0118 43.1649 15.9561 42.746 15.8445 42.3926C15.7327 42.0387 15.5862 41.7478 15.4046 41.5199C15.2233 41.2919 15.0136 41.1242 14.7764 41.0173C14.539 40.9101 14.2994 40.8567 14.0575 40.8567ZM26.1333 41.2059H23.2017V47.4877H21.2468V41.2059H18.3156V40.2285H26.1333V41.2059ZM31.2984 42.7411C32.4895 42.7411 33.3576 42.9532 33.902 43.3766C34.4466 43.7998 34.7186 44.3794 34.7186 45.1145C34.7186 45.8499 34.4466 46.4291 33.902 46.8525C33.3576 47.2762 32.4895 47.4877 31.2984 47.4877H27.25V40.2285H29.2043V42.7411H31.2984ZM29.2043 43.7186V46.5105H31.2984C31.7172 46.5105 32.043 46.3919 32.2754 46.1547C32.5082 45.917 32.6246 45.5707 32.6246 45.1145C32.6246 44.6586 32.5082 44.3118 32.2754 44.0746C32.043 43.8372 31.7172 43.7186 31.2984 43.7186H29.2043ZM42.6758 45.1845C42.6758 46.0686 43.211 46.5105 44.2813 46.5105H46.2357V43.8581H44.2813C43.211 43.8581 42.6758 44.3002 42.6758 45.1845ZM46.2357 42.8811C46.2357 42.2108 46.061 41.7175 45.7122 41.4011C45.3632 41.0846 44.9093 40.9266 44.3508 40.9266C43.9323 40.9266 43.5228 40.9896 43.1225 41.1152C42.7225 41.2404 42.364 41.4105 42.0474 41.6244L41.5589 40.7869C41.7635 40.6474 41.9893 40.5262 42.236 40.4241C42.4826 40.3215 42.7361 40.2355 42.9969 40.1657C43.2574 40.0958 43.5157 40.0423 43.7716 40.0051C44.0278 39.9677 44.2672 39.9492 44.4907 39.9492C45.0864 39.9492 45.6121 40.0192 46.068 40.1587C46.5244 40.2984 46.9104 40.4982 47.2268 40.759C47.5432 41.0197 47.7828 41.3291 47.9459 41.6873C48.1087 42.0458 48.1899 42.4436 48.1899 42.8811V47.4877H44.2813C43.0154 47.4877 42.0824 47.2969 41.4821 46.9154C40.882 46.534 40.5817 45.9569 40.5817 45.1845C40.5817 44.4119 40.882 43.8348 41.4821 43.4532C42.0824 43.0718 43.0154 42.8811 44.2813 42.8811H46.2357ZM57.1943 42.2526C57.1943 42.6065 57.0663 42.9088 56.8104 43.1601C56.5547 43.4114 56.1476 43.5744 55.5891 43.6486C56.2589 43.7511 56.7639 43.9628 57.1037 44.2841C57.4432 44.6051 57.6133 44.975 57.6133 45.3938C57.6133 45.6917 57.5457 45.9685 57.4107 46.2246C57.276 46.4801 57.0687 46.7013 56.7895 46.8874C56.5102 47.0736 56.1566 47.2203 55.7284 47.3273C55.3004 47.4344 54.7884 47.4877 54.1927 47.4877H50.0748V40.2285H53.7742C54.3698 40.2285 54.8815 40.2819 55.3099 40.3891C55.7379 40.496 56.0917 40.6404 56.3709 40.8219C56.6501 41.0032 56.857 41.2173 56.9921 41.4638C57.1268 41.7105 57.1943 41.9736 57.1943 42.2526ZM54.1927 46.5105C54.6117 46.5105 54.9376 46.4035 55.1701 46.1896C55.4029 45.9755 55.5191 45.7102 55.5191 45.3938C55.5191 45.0771 55.4029 44.8122 55.1701 44.5981C54.9376 44.3842 54.6117 44.277 54.1927 44.277H52.0292V46.5105H54.1927ZM53.7742 43.2996C54.1927 43.2996 54.5186 43.1951 54.7516 42.9854C54.984 42.7761 55.1002 42.5319 55.1002 42.2526C55.1002 41.9736 54.984 41.7294 54.7516 41.5199C54.5186 41.3104 54.1927 41.2059 53.7742 41.2059H52.0292V43.2996H53.7742ZM65.7103 41.2059H62.7786V47.4877H60.8238V41.2059H57.8925V40.2285H65.7103V41.2059ZM70.3171 46.8595C70.615 46.8595 70.8943 46.8038 71.1546 46.6922C71.4153 46.5803 71.6435 46.406 71.8387 46.1685C72.0341 45.9313 72.1901 45.6217 72.3063 45.2402C72.4229 44.8584 72.481 44.3979 72.481 43.8581C72.481 43.3185 72.4229 42.8577 72.3063 42.4762C72.1901 42.0944 72.0341 41.785 71.8387 41.5478C71.6435 41.3104 71.4153 41.1359 71.1546 41.0241C70.8943 40.9126 70.615 40.8567 70.3171 40.8567C70.0194 40.8567 69.7401 40.9126 69.4794 41.0241C69.2187 41.1359 68.9909 41.3104 68.7955 41.5478C68.5999 41.785 68.4439 42.0944 68.3277 42.4762C68.2115 42.8577 68.1534 43.3185 68.1534 43.8581C68.1534 44.3979 68.2115 44.8584 68.3277 45.2402C68.4439 45.6217 68.5999 45.9313 68.7955 46.1685C68.9909 46.406 69.2187 46.5803 69.4794 46.6922C69.7401 46.8038 70.0194 46.8595 70.3171 46.8595ZM70.3171 39.9492C70.9405 39.9492 71.5154 40.0353 72.0411 40.2077C72.567 40.3796 73.0162 40.6309 73.3885 40.9612C73.7608 41.2919 74.0513 41.7014 74.2609 42.1899C74.4702 42.6784 74.5751 43.2345 74.5751 43.8581C74.5751 44.4909 74.4702 45.0494 74.2609 45.5335C74.0513 46.0174 73.7608 46.4245 73.3885 46.7551C73.0162 47.0852 72.567 47.3365 72.0411 47.5086C71.5154 47.6809 70.9405 47.7669 70.3171 47.7669C69.6844 47.7669 69.1071 47.6809 68.586 47.5086C68.0647 47.3365 67.6182 47.0852 67.2459 46.7551C66.8736 46.4245 66.5827 46.0174 66.3735 45.5335C66.1638 45.0494 66.0592 44.4909 66.0592 43.8581C66.0592 43.2345 66.1638 42.6784 66.3735 42.1899C66.5827 41.7014 66.8736 41.2919 67.2459 40.9612C67.6182 40.6309 68.0647 40.3796 68.586 40.2077C69.1071 40.0353 69.6844 39.9492 70.3171 39.9492ZM81.485 46.2313L83.7884 40.2285H86.6505V47.4877H84.6959V42.1829H84.5564L82.5322 47.4877H80.3124L78.2741 42.1829H78.1346V47.4877H76.1804V40.2285H79.0421L81.3455 46.2313H81.485ZM90.2102 45.1845C90.2102 46.0686 90.7453 46.5105 91.8156 46.5105H93.7701V43.8581H91.8156C90.7453 43.8581 90.2102 44.3002 90.2102 45.1845ZM93.7701 42.8811C93.7701 42.2108 93.5954 41.7175 93.2466 41.4011C92.8976 41.0846 92.4437 40.9266 91.8852 40.9266C91.4667 40.9266 91.0572 40.9896 90.6569 41.1152C90.2569 41.2404 89.8984 41.4105 89.5818 41.6244L89.0933 40.7869C89.2979 40.6474 89.5237 40.5262 89.7703 40.4241C90.017 40.3215 90.2705 40.2355 90.5313 40.1657C90.7918 40.0958 91.0501 40.0423 91.306 40.0051C91.5621 39.9677 91.8016 39.9492 92.0251 39.9492C92.6208 39.9492 93.1465 40.0192 93.6024 40.1587C94.0588 40.2984 94.4447 40.4982 94.7612 40.759C95.0776 41.0197 95.3172 41.3291 95.4801 41.6873C95.6431 42.0458 95.7243 42.4436 95.7243 42.8811V47.4877H91.8156C90.5497 47.4877 89.6168 47.2969 89.0165 46.9154C88.4164 46.534 88.1161 45.9569 88.1161 45.1845C88.1161 44.4119 88.4164 43.8348 89.0165 43.4532C89.6168 43.0718 90.5497 42.8811 91.8156 42.8811H93.7701ZM101.518 39.9492C101.816 39.9492 102.114 39.9747 102.412 40.026C102.709 40.0773 102.995 40.1472 103.27 40.2355C103.544 40.3239 103.8 40.4331 104.038 40.5634C104.275 40.6938 104.482 40.838 104.659 40.9962L104.1 41.8337C103.719 41.5454 103.33 41.3221 102.935 41.1639C102.539 41.0056 102.114 40.9266 101.658 40.9266C101.322 40.9266 101.015 40.9801 100.736 41.0869C100.457 41.194 100.215 41.3661 100.01 41.6037C99.8055 41.8407 99.6448 42.1455 99.5286 42.5178C99.4124 42.8903 99.3541 43.3368 99.3541 43.8581C99.3541 44.3794 99.4124 44.8259 99.5286 45.1982C99.6448 45.5707 99.8101 45.8754 100.024 46.1127C100.238 46.3503 100.497 46.5222 100.799 46.6293C101.102 46.7363 101.434 46.7897 101.797 46.7897C102.253 46.7897 102.679 46.7107 103.074 46.5525C103.47 46.3943 103.859 46.1708 104.24 45.8825L104.799 46.7202C104.622 46.8784 104.415 47.0225 104.177 47.1528C103.94 47.2833 103.684 47.3924 103.409 47.4807C103.135 47.5691 102.849 47.6391 102.551 47.6904C102.253 47.7414 101.955 47.7669 101.658 47.7669C100.997 47.7669 100.394 47.6809 99.8497 47.5086C99.3051 47.3365 98.8421 47.0852 98.4605 46.7551C98.0792 46.4245 97.7835 46.0174 97.5742 45.5335C97.3645 45.0494 97.2602 44.4909 97.2602 43.8581C97.2602 43.2345 97.3645 42.6784 97.5742 42.1899C97.7835 41.7014 98.0746 41.2919 98.4467 40.9612C98.819 40.6309 99.2655 40.3796 99.787 40.2077C100.308 40.0353 100.885 39.9492 101.518 39.9492ZM112.965 41.2059H110.034V47.4877H108.079V41.2059H105.148V40.2285H112.965V41.2059ZM117.851 46.7897C118.308 46.7897 118.733 46.7107 119.129 46.5525C119.524 46.3943 119.913 46.1708 120.295 45.8825L120.853 46.7202C120.676 46.8784 120.469 47.0225 120.232 47.1528C119.994 47.2833 119.739 47.3924 119.464 47.4807C119.189 47.5691 118.903 47.6391 118.605 47.6904C118.308 47.7414 118.01 47.7669 117.712 47.7669C117.051 47.7669 116.448 47.6809 115.904 47.5086C115.359 47.3365 114.897 47.0852 114.515 46.7551C114.134 46.4245 113.838 46.0174 113.629 45.5335C113.419 45.0494 113.314 44.4909 113.314 43.8581C113.314 43.2345 113.415 42.6784 113.615 42.1899C113.815 41.7014 114.094 41.2919 114.452 40.9612C114.81 40.6309 115.236 40.3796 115.729 40.2077C116.223 40.0353 116.767 39.9492 117.363 39.9492C117.921 39.9492 118.447 40.033 118.94 40.2007C119.433 40.368 119.862 40.6124 120.225 40.9335C120.588 41.2545 120.876 41.6433 121.09 42.0992C121.304 42.5552 121.411 43.0718 121.411 43.6486V44.626H115.45C115.562 45.3984 115.83 45.952 116.253 46.2873C116.676 46.6223 117.209 46.7897 117.851 46.7897ZM117.363 40.8567C117.093 40.8567 116.842 40.9077 116.609 41.0103C116.377 41.1128 116.174 41.2754 116.002 41.4988C115.83 41.7223 115.69 42.0108 115.583 42.3642C115.476 42.718 115.418 43.146 115.409 43.6486H119.317C119.317 43.1649 119.262 42.746 119.15 42.3926C119.038 42.0387 118.892 41.7478 118.71 41.5199C118.529 41.2919 118.319 41.1242 118.082 41.0173C117.844 40.9101 117.605 40.8567 117.363 40.8567ZM124.971 41.2059V46.5105H126.716C127.033 46.5105 127.323 46.4618 127.589 46.3639C127.854 46.2662 128.082 46.1102 128.273 45.8963C128.464 45.6822 128.613 45.4078 128.72 45.0729C128.827 44.7376 128.88 44.3327 128.88 43.8581C128.88 43.3836 128.827 42.9788 128.72 42.6434C128.613 42.3085 128.464 42.0339 128.273 41.82C128.082 41.6059 127.854 41.4501 127.589 41.3524C127.323 41.2545 127.033 41.2059 126.716 41.2059H124.971ZM126.716 40.2285C127.358 40.2285 127.943 40.3121 128.468 40.4797C128.994 40.6474 129.443 40.8894 129.815 41.2059C130.188 41.5219 130.474 41.9036 130.674 42.3505C130.874 42.7972 130.974 43.2996 130.974 43.8581C130.974 44.4167 130.874 44.9189 130.674 45.3658C130.474 45.8127 130.188 46.1943 129.815 46.5105C129.443 46.8269 128.994 47.0688 128.468 47.2364C127.943 47.4041 127.358 47.4877 126.716 47.4877H124.971V50.0006H123.017V40.2285H126.716ZM136.488 39.9492C136.786 39.9492 137.084 39.9747 137.382 40.026C137.68 40.0773 137.966 40.1472 138.24 40.2355C138.515 40.3239 138.771 40.4331 139.008 40.5634C139.246 40.6938 139.453 40.838 139.629 40.9962L139.071 41.8337C138.69 41.5454 138.301 41.3221 137.905 41.1639C137.51 41.0056 137.084 40.9266 136.628 40.9266C136.293 40.9266 135.986 40.9801 135.707 41.0869C135.427 41.194 135.185 41.3661 134.981 41.6037C134.776 41.8407 134.615 42.1455 134.499 42.5178C134.383 42.8903 134.325 43.3368 134.325 43.8581C134.325 44.3794 134.383 44.8259 134.499 45.1982C134.615 45.5707 134.781 45.8754 134.995 46.1127C135.209 46.3503 135.467 46.5222 135.769 46.6293C136.072 46.7363 136.405 46.7897 136.768 46.7897C137.224 46.7897 137.65 46.7107 138.045 46.5525C138.441 46.3943 138.829 46.1708 139.211 45.8825L139.769 46.7202C139.592 46.8784 139.385 47.0225 139.148 47.1528C138.91 47.2833 138.655 47.3924 138.38 47.4807C138.105 47.5691 137.819 47.6391 137.521 47.6904C137.224 47.7414 136.926 47.7669 136.628 47.7669C135.967 47.7669 135.365 47.6809 134.82 47.5086C134.276 47.3365 133.813 47.0852 133.431 46.7551C133.05 46.4245 132.754 46.0174 132.545 45.5335C132.335 45.0494 132.23 44.4909 132.23 43.8581C132.23 43.2345 132.335 42.6784 132.545 42.1899C132.754 41.7014 133.045 41.2919 133.417 40.9612C133.79 40.6309 134.236 40.3796 134.757 40.2077C135.279 40.0353 135.856 39.9492 136.488 39.9492ZM144.655 44.3468H143.189V47.4877H141.235V40.2285H143.189V43.3696H144.655L146.819 40.2285H148.913L146.47 43.7885L149.053 47.4877H146.819L144.655 44.3468ZM158.127 40.2285V47.4877H156.172V42.0434H156.033L152.822 47.4877H150.309V40.2285H152.264V45.673H152.403L155.614 40.2285H158.127ZM164.548 43.8163L167.62 47.4877H165.386L163.431 45.1565L161.477 47.4877H159.244L162.315 43.8163L159.313 40.2285H161.547L163.431 42.4899L165.316 40.2285H167.55L164.548 43.8163Z" fill="white"/>
<path d="M212.789 37.316H227.352L228.975 34.1621H212.789C211.355 34.1621 210.188 34.6596 209.123 35.4424C208.012 36.2586 206.982 37.4045 205.883 38.6282C204.729 39.9118 203.473 41.3093 201.907 42.4042C200.31 43.5203 198.421 44.2979 196.056 44.2786C194.109 44.2629 192.235 44.0906 190.421 43.7648C188.6 43.4377 186.845 42.9576 185.144 42.329C184.363 42.0401 183.588 41.7172 182.82 41.362C182.109 41.0333 181.397 40.6719 180.685 40.2797H174.815C176.064 41.1797 177.327 41.9967 178.609 42.729C180.383 43.743 182.195 44.5964 184.06 45.2858C185.933 45.9779 187.852 46.5032 189.834 46.8582C191.823 47.2145 193.884 47.4028 196.031 47.4207C199.096 47.4452 201.434 46.5627 203.346 45.2936C205.282 44.0086 206.815 42.3026 208.223 40.7352L208.233 40.7245C209.871 38.9028 211.299 37.316 212.789 37.316ZM212.789 13.2592H239.731L241.354 10.105H212.789C211.299 10.105 209.871 8.51824 208.233 6.69649L208.223 6.68583C206.815 5.11778 205.282 3.41243 203.346 2.12743C201.434 0.858118 199.096 -0.024413 196.031 0.000514936C193.884 0.0178037 191.823 0.206572 189.834 0.5628C187.852 0.917823 185.933 1.44332 184.06 2.13527C182.195 2.82481 180.383 3.67819 178.609 4.6922C177.327 5.42436 176.064 6.24135 174.815 7.14137H180.685C181.397 6.74935 182.109 6.3877 182.82 6.05901C183.588 5.70399 184.363 5.38093 185.144 5.09205C186.845 4.46342 188.6 3.98336 190.421 3.65648C192.235 3.33061 194.109 3.15812 196.056 3.14244C198.421 3.12314 200.31 3.90073 201.907 5.01686C203.473 6.11168 204.729 7.50926 205.883 8.79285C206.982 10.0167 208.012 11.1624 209.123 11.9788C210.188 12.7616 211.355 13.2592 212.789 13.2592ZM218.56 29.9993H231.117L232.74 26.8451H218.56C217.915 26.8451 217.301 26.75 216.743 26.5787C216.156 26.3984 215.632 26.1306 215.2 25.7979C214.843 25.5233 214.553 25.2035 214.351 24.8571C214.142 24.4969 214.026 24.1087 214.026 23.7106C214.026 23.3124 214.142 22.9238 214.351 22.5641C214.553 22.2176 214.843 21.8977 215.2 21.6231C215.632 21.2904 216.156 21.0226 216.743 20.8425C217.301 20.671 217.915 20.5759 218.56 20.5759H235.966L237.589 17.4219H218.56C217.556 17.4219 216.594 17.5803 215.714 17.867C214.8 18.1645 213.973 18.5982 213.278 19.1343C212.514 19.7229 211.9 20.4342 211.484 21.2293C211.09 21.9831 210.872 22.8217 210.872 23.7106C210.872 24.5996 211.09 25.4379 211.484 26.1919C211.9 26.9872 212.514 27.6985 213.278 28.2869C213.973 28.8229 214.8 29.2567 215.714 29.554C216.594 29.8407 217.556 29.9993 218.56 29.9993Z" fill="white"/>
<path d="M3.65094 31.2742C3.43945 31.2742 3.25892 31.2 3.11116 31.0523C2.9628 30.9037 2.88923 30.7242 2.88923 30.5125V28.1636C2.88923 27.9304 2.9628 27.7397 3.11116 27.5919C3.25892 27.4435 3.43945 27.37 3.65094 27.37H4.82536C5.43932 27.37 5.96803 27.2375 6.41272 26.9731C6.8574 26.7082 7.26951 26.285 7.65107 25.703C8.03182 25.1208 8.41278 24.3752 8.79354 23.4649L14.8567 9.65563C14.9413 9.44414 15.0579 9.29076 15.2056 9.19567C15.354 9.10078 15.5233 9.05273 15.7141 9.05273H18.666C18.8353 9.05273 18.9885 9.11666 19.1266 9.24351C19.2639 9.37057 19.3326 9.51833 19.3326 9.68759C19.3326 9.79374 19.3222 9.88883 19.3007 9.97346C19.28 10.0581 19.248 10.1427 19.2056 10.2274L12.8248 24.7984C12.2961 25.9623 11.7988 26.9516 11.3334 27.7668C10.8678 28.5812 10.3594 29.2478 9.80915 29.7661C9.25913 30.2849 8.60838 30.6659 7.85693 30.9093C7.10567 31.1528 6.20103 31.2742 5.14239 31.2742H3.65094ZM8.5716 25.7189L0.0956865 10.0683C0.0317583 9.9415 0 9.83595 0 9.75132C0 9.56054 0.0741772 9.3969 0.222539 9.25879C0.370297 9.12149 0.529317 9.05273 0.698586 9.05273H3.80975C3.99993 9.05273 4.16437 9.10078 4.30168 9.19567C4.43898 9.29076 4.54995 9.44414 4.63458 9.65563L10.8887 21.338L8.5716 25.7189ZM29.8086 31.2742C29.5963 31.2742 29.4166 31.2054 29.2688 31.0681C29.1203 30.93 29.0461 30.7449 29.0461 30.5125V9.84641C29.0461 9.61341 29.1203 9.42324 29.2688 9.27488C29.4166 9.12712 29.5963 9.05273 29.8086 9.05273H46.4426C46.675 9.05273 46.8658 9.12712 47.0135 9.27488C47.1621 9.42324 47.2363 9.61341 47.2363 9.84641V30.5125C47.2363 30.7242 47.1621 30.9037 47.0135 31.0523C46.8658 31.2 46.675 31.2742 46.4426 31.2742H43.5851C43.3736 31.2742 43.1939 31.2 43.0455 31.0523C42.8978 30.9037 42.8234 30.7242 42.8234 30.5125V13.0209H33.4589V30.5125C33.4589 30.7242 33.3902 30.9037 33.2523 31.0523C33.1148 31.2 32.9296 31.2742 32.6972 31.2742H29.8086ZM58.9178 31.5918C56.569 31.5918 54.707 30.9141 53.3313 29.56C51.9557 28.2058 51.2149 26.2794 51.1087 23.7827C51.0878 23.5711 51.0774 23.3013 51.0774 22.9732C51.0774 22.6449 51.0878 22.3856 51.1087 22.1954C51.1934 20.5867 51.5588 19.2063 52.204 18.0525C52.8499 16.8988 53.7441 16.0102 54.8867 15.3858C56.0292 14.7614 57.3729 14.4492 58.9178 14.4492C60.632 14.4492 62.0716 14.8039 63.2356 15.5127C64.3998 16.2217 65.2779 17.2062 65.8703 18.4652C66.4627 19.7243 66.7591 21.1792 66.7591 22.8302V23.4969C66.7591 23.7084 66.6849 23.8881 66.5371 24.0366C66.3886 24.1844 66.1986 24.2586 65.9654 24.2586H55.4263C55.4263 24.2586 55.4263 24.2906 55.4263 24.3537C55.4263 24.4174 55.4263 24.4701 55.4263 24.5125C55.4472 25.2533 55.5901 25.936 55.8551 26.5604C56.1195 27.1846 56.5107 27.687 57.0295 28.0677C57.5478 28.4487 58.1666 28.6395 58.8867 28.6395C59.4791 28.6395 59.9764 28.5492 60.3781 28.3695C60.7806 28.19 61.1087 27.9831 61.3626 27.7507C61.6165 27.5177 61.7962 27.3275 61.9023 27.1792C62.0923 26.9253 62.2463 26.7719 62.3623 26.7186C62.4787 26.6657 62.6536 26.6394 62.886 26.6394H65.6164C65.8281 26.6394 66.003 26.7033 66.1403 26.8302C66.2776 26.9572 66.3359 27.1152 66.3144 27.306C66.2935 27.6446 66.1188 28.0575 65.7907 28.5444C65.4632 29.0307 64.9922 29.5073 64.3782 29.9727C63.7643 30.4383 62.9978 30.8247 62.077 31.1313C61.1559 31.4378 60.1035 31.5918 58.9178 31.5918ZM55.4263 21.5919H62.4421V21.4968C62.4421 20.6714 62.304 19.9465 62.0292 19.322C61.7538 18.6976 61.3521 18.2113 60.8228 17.8617C60.2935 17.5128 59.6588 17.3381 58.9178 17.3381C58.1776 17.3381 57.5422 17.5128 57.0136 17.8617C56.4843 18.2113 56.0875 18.6976 55.8231 19.322C55.5582 19.9465 55.4263 20.6714 55.4263 21.4968V21.5919ZM75.1718 31.2742C74.9389 31.2742 74.7535 31.2 74.6162 31.0523C74.4789 30.9037 74.4101 30.7242 74.4101 30.5125V18.1315H69.2356C69.0026 18.1315 68.8174 18.0582 68.6799 17.9096C68.5426 17.7612 68.4739 17.5711 68.4739 17.3381V15.5288C68.4739 15.3171 68.5426 15.1376 68.6799 14.989C68.8174 14.8412 69.0026 14.7671 69.2356 14.7671H83.6478C83.8801 14.7671 84.0709 14.8412 84.2195 14.989C84.3672 15.1376 84.4414 15.3171 84.4414 15.5288V17.3381C84.4414 17.5711 84.3672 17.7612 84.2195 17.9096C84.0709 18.0582 83.8801 18.1315 83.6478 18.1315H78.5052V30.5125C78.5052 30.7242 78.431 30.9037 78.2824 31.0523C78.1347 31.2 77.9551 31.2742 77.7434 31.2742H75.1718ZM87.7428 35.4705C87.5327 35.4705 87.3516 35.397 87.203 35.2486C87.0553 35.1008 86.9811 34.9205 86.9811 34.7088V15.5288C86.9811 15.3171 87.0553 15.1368 87.203 14.989C87.351 14.8412 87.5313 14.7671 87.7428 14.7671H90.2507C90.4837 14.7671 90.669 14.8412 90.8063 14.989C90.9436 15.1376 91.0124 15.3171 91.0124 15.5288V16.7983C91.5208 16.1212 92.1876 15.5607 93.0124 15.1161C93.8379 14.672 94.8645 14.4492 96.0918 14.4492C97.2136 14.4492 98.1868 14.6298 99.0124 14.989C99.8379 15.3491 100.525 15.8625 101.075 16.5283C101.626 17.1951 102.049 17.9838 102.346 18.894C102.642 19.8035 102.811 20.8087 102.854 21.9095C102.874 22.269 102.886 22.6395 102.886 23.0202C102.886 23.4018 102.874 23.7827 102.854 24.1635C102.832 25.2215 102.674 26.2003 102.378 27.1C102.081 27.9992 101.653 28.7824 101.091 29.449C100.531 30.1156 99.8379 30.6395 99.0124 31.0203C98.1868 31.4013 97.2136 31.5918 96.0918 31.5918C94.9492 31.5918 93.9752 31.3852 93.1712 30.9724C92.3671 30.5597 91.7109 30.0151 91.2031 29.3381V34.7088C91.2031 34.9197 91.1344 35.1014 90.9971 35.2486C90.8598 35.397 90.673 35.4705 90.4414 35.4705H87.7428ZM94.9174 28.1948C95.8275 28.1948 96.5365 27.9992 97.0443 27.6078C97.5521 27.216 97.9226 26.7033 98.155 26.0679C98.388 25.433 98.5253 24.7344 98.5677 23.9727C98.5892 23.3381 98.5892 22.7032 98.5677 22.0685C98.5253 21.306 98.388 20.6083 98.155 19.9728C97.9226 19.3379 97.5521 18.8247 97.0443 18.4333C96.5365 18.0421 95.8275 17.8465 94.9174 17.8465C94.0495 17.8465 93.3459 18.0469 92.8064 18.4494C92.2666 18.8516 91.8754 19.3643 91.6319 19.9887C91.3883 20.6131 91.2454 21.2534 91.2031 21.9095C91.1816 22.2905 91.1712 22.6927 91.1712 23.1159C91.1712 23.5391 91.1816 23.952 91.2031 24.3537C91.2246 24.9891 91.3724 25.5975 91.6478 26.1794C91.9224 26.7608 92.3249 27.2423 92.8542 27.6239C93.3827 28.0046 94.0711 28.1948 94.9174 28.1948ZM113.742 31.5918C112.049 31.5918 110.626 31.2957 109.472 30.7027C108.319 30.1102 107.441 29.2741 106.838 28.1948C106.235 27.1152 105.891 25.8562 105.806 24.4174C105.785 24.0366 105.774 23.5711 105.774 23.0202C105.774 22.4702 105.785 22.0046 105.806 21.6239C105.891 20.1636 106.245 18.8989 106.87 17.8306C107.494 16.7615 108.383 15.931 109.536 15.338C110.689 14.7456 112.091 14.4492 113.742 14.4492C115.393 14.4492 116.795 14.7456 117.948 15.338C119.102 15.931 119.991 16.7615 120.615 17.8306C121.239 18.8989 121.594 20.1636 121.678 21.6239C121.699 22.0046 121.71 22.4702 121.71 23.0202C121.71 23.5711 121.699 24.0366 121.678 24.4174C121.594 25.8562 121.25 27.1152 120.647 28.1948C120.043 29.2741 119.165 30.1102 118.012 30.7027C116.858 31.2957 115.435 31.5918 113.742 31.5918ZM113.742 28.4487C114.864 28.4487 115.732 28.0941 116.345 27.3852C116.959 26.6762 117.297 25.6342 117.361 24.2586C117.382 23.9408 117.393 23.5288 117.393 23.0202C117.393 22.5124 117.382 22.0997 117.361 21.7827C117.297 20.407 116.959 19.3643 116.345 18.6554C115.732 17.9464 114.864 17.592 113.742 17.592C112.62 17.592 111.753 17.9464 111.139 18.6554C110.525 19.3643 110.187 20.407 110.123 21.7827C110.102 22.0997 110.092 22.5124 110.092 23.0202C110.092 23.5288 110.102 23.9408 110.123 24.2586C110.187 25.6342 110.525 26.6762 111.139 27.3852C111.753 28.0941 112.62 28.4487 113.742 28.4487ZM125.996 31.2742C125.784 31.2742 125.604 31.2 125.456 31.0523C125.308 30.9037 125.234 30.7242 125.234 30.5125V15.5288C125.234 15.3171 125.308 15.1376 125.456 14.989C125.604 14.8412 125.784 14.7671 125.996 14.7671H133.043C135.286 14.7671 136.948 15.1798 138.027 16.0046C139.106 16.8303 139.646 17.9416 139.646 19.3379C139.646 20.2273 139.477 20.9148 139.138 21.4017C138.799 21.888 138.334 22.3112 137.742 22.6712C138.482 23.0098 139.059 23.5232 139.472 24.2107C139.884 24.8989 140.09 25.6549 140.09 26.4806C140.09 28.0046 139.524 29.1841 138.392 30.02C137.26 30.8558 135.593 31.2742 133.392 31.2742H125.996ZM129.297 28.4175H133.107C133.953 28.4175 134.63 28.2585 135.138 27.9409C135.646 27.6239 135.9 27.1265 135.9 26.4486C135.9 25.7508 135.667 25.243 135.202 24.9252C134.736 24.6076 134.038 24.4494 133.107 24.4494H129.297V28.4175ZM129.297 21.4968H132.98C133.826 21.4968 134.493 21.3221 134.979 20.9731C135.466 20.6241 135.71 20.1107 135.71 19.4336C135.71 18.7559 135.461 18.2855 134.964 18.0206C134.467 17.7562 133.805 17.6237 132.98 17.6237H129.297V21.4968ZM144.471 31.2742C144.281 31.2742 144.111 31.2 143.963 31.0523C143.815 30.9037 143.741 30.7344 143.741 30.5444V15.5288C143.741 15.3171 143.815 15.1376 143.963 14.989C144.111 14.8412 144.291 14.7671 144.503 14.7671H147.137C147.37 14.7671 147.556 14.8412 147.693 14.989C147.831 15.1376 147.9 15.3171 147.9 15.5288V28.0677L146.788 27.2743L155.518 15.2749C155.624 15.1263 155.74 15.0049 155.867 14.91C155.995 14.8143 156.164 14.7671 156.376 14.7671H158.788C158.979 14.7671 159.148 14.8356 159.296 14.9731C159.444 15.111 159.518 15.2749 159.518 15.4657V30.5125C159.518 30.7242 159.444 30.9037 159.296 31.0523C159.148 31.2 158.968 31.2742 158.756 31.2742H156.122C155.889 31.2742 155.703 31.2 155.566 31.0523C155.428 30.9037 155.359 30.7242 155.359 30.5125V18.5445L156.534 18.7033L147.741 30.7664C147.656 30.8934 147.545 31.0098 147.407 31.1154C147.27 31.2215 147.095 31.2742 146.884 31.2742H144.471ZM173.962 31.2742C173.75 31.2742 173.57 31.2 173.422 31.0523C173.274 30.9037 173.2 30.7242 173.2 30.5125V25.116C172.671 25.5816 172.02 25.9249 171.248 26.1475C170.475 26.3696 169.602 26.4806 168.629 26.4806C166.702 26.4806 165.216 26.0206 164.168 25.1001C163.121 24.1796 162.597 22.6927 162.597 20.6394V15.5288C162.597 15.3171 162.671 15.1376 162.819 14.989C162.967 14.8412 163.147 14.7671 163.359 14.7671H166.089C166.301 14.7671 166.481 14.8412 166.629 14.989C166.777 15.1376 166.851 15.3171 166.851 15.5288V20.4175C166.851 21.2638 167.078 21.8721 167.534 22.2426C167.989 22.6131 168.724 22.7983 169.74 22.7983C170.777 22.7983 171.613 22.661 172.247 22.3856C172.882 22.1108 173.2 21.6239 173.2 20.9253V15.5288C173.2 15.3171 173.274 15.1376 173.422 14.989C173.57 14.8412 173.75 14.7671 173.962 14.7671H176.819C177.031 14.7671 177.21 14.8412 177.359 14.989C177.507 15.1376 177.581 15.3171 177.581 15.5288V30.5125C177.581 30.7242 177.507 30.9037 177.359 31.0523C177.21 31.2 177.031 31.2742 176.819 31.2742H173.962ZM186.66 31.5918C185.559 31.5918 184.565 31.3747 183.675 30.9413C182.786 30.5069 182.083 29.9249 181.564 29.1951C181.046 28.4646 180.787 27.6446 180.787 26.7345C180.787 25.2533 181.39 24.0734 182.596 23.1951C183.803 22.3168 185.379 21.7292 187.326 21.4331L191.675 20.7982V20.1316C191.675 19.243 191.453 18.5547 191.008 18.0684C190.564 17.5815 189.802 17.3381 188.723 17.3381C187.961 17.3381 187.342 17.492 186.866 17.7986C186.39 18.1052 186.035 18.5125 185.802 19.0209C185.633 19.2957 185.39 19.4336 185.072 19.4336H182.564C182.331 19.4336 182.157 19.3699 182.041 19.243C181.924 19.116 181.866 18.9467 181.866 18.7352C181.887 18.3967 182.03 17.9838 182.295 17.4969C182.559 17.0106 182.961 16.5396 183.501 16.0844C184.041 15.6293 184.744 15.2429 185.612 14.9259C186.48 14.6082 187.527 14.4492 188.755 14.4492C190.088 14.4492 191.214 14.6137 192.136 14.9412C193.056 15.2692 193.792 15.7085 194.342 16.2593C194.892 16.8093 195.294 17.4545 195.548 18.1955C195.802 18.9363 195.929 19.7189 195.929 20.5443V30.5125C195.929 30.7242 195.855 30.9037 195.707 31.0523C195.559 31.2 195.379 31.2742 195.167 31.2742H192.596C192.363 31.2742 192.178 31.2 192.04 31.0523C191.903 30.9037 191.834 30.7242 191.834 30.5125V29.2741C191.559 29.6551 191.188 30.0256 190.723 30.3856C190.257 30.7449 189.691 31.0362 189.024 31.2583C188.358 31.4803 187.57 31.5918 186.66 31.5918ZM187.739 28.5755C188.479 28.5755 189.152 28.4175 189.755 28.0997C190.358 27.7821 190.834 27.2901 191.183 26.6235C191.532 25.9569 191.707 25.116 191.707 24.0998V23.4329L188.533 23.9408C187.284 24.1315 186.353 24.4383 185.739 24.8615C185.125 25.2853 184.818 25.8035 184.818 26.4175C184.818 26.8828 184.961 27.2797 185.247 27.6078C185.532 27.9361 185.898 28.1787 186.342 28.3377C186.787 28.4965 187.252 28.5755 187.739 28.5755Z" fill="white"/>
</svg>
