<svg width="242" height="50" viewBox="0 0 242 50" fill="none" xmlns="http://www.w3.org/2000/svg">
<path d="M6.03109 39.9495C6.32922 39.9495 6.62675 39.975 6.92488 40.0263C7.22241 40.0775 7.50868 40.1475 7.78328 40.2357C8.05769 40.3242 8.31361 40.4333 8.55083 40.5636C8.78845 40.6941 8.99531 40.8382 9.17201 40.9964L8.61375 41.8339C8.23239 41.5457 7.8436 41.3223 7.44817 41.1641C7.05254 41.0059 6.62675 40.9269 6.17081 40.9269C5.83549 40.9269 5.52852 40.9804 5.24928 41.0871C4.97005 41.1942 4.72821 41.3663 4.52355 41.604C4.3187 41.841 4.15808 42.1457 4.04188 42.518C3.92569 42.8906 3.86738 43.337 3.86738 43.8583C3.86738 44.3796 3.92569 44.8261 4.04188 45.1984C4.15808 45.5709 4.32333 45.8757 4.53742 46.1129C4.75132 46.3505 5.00985 46.5224 5.3122 46.6296C5.61476 46.7365 5.94746 46.79 6.31032 46.79C6.76647 46.79 7.19225 46.711 7.58768 46.5528C7.98351 46.3945 8.37191 46.171 8.75346 45.8827L9.31193 46.7204C9.13522 46.8786 8.92776 47.0228 8.69075 47.153C8.45313 47.2835 8.19741 47.3927 7.9226 47.4809C7.64819 47.5694 7.36192 47.6393 7.06419 47.6906C6.76647 47.7417 6.46854 47.7672 6.17081 47.7672C5.51002 47.7672 4.90732 47.6811 4.36293 47.5089C3.81834 47.3368 3.35536 47.0855 2.9738 46.7554C2.59244 46.4247 2.29673 46.0176 2.08745 45.5337C1.87778 45.0496 1.77344 44.4912 1.77344 43.8583C1.77344 43.2347 1.87778 42.6787 2.08745 42.1902C2.29673 41.7017 2.58782 41.2922 2.95993 40.9615C3.33224 40.6312 3.77873 40.3799 4.30021 40.208C4.82128 40.0355 5.39845 39.9495 6.03109 39.9495ZM14.547 46.79C15.0031 46.79 15.4289 46.711 15.8244 46.5528C16.22 46.3945 16.6084 46.171 16.9901 45.8827L17.5484 46.7204C17.3717 46.8786 17.1644 47.0228 16.9272 47.153C16.6898 47.2835 16.4341 47.3927 16.1593 47.4809C15.8849 47.5694 15.5986 47.6393 15.3009 47.6906C15.0031 47.7417 14.7052 47.7672 14.4075 47.7672C13.7467 47.7672 13.144 47.6811 12.5996 47.5089C12.055 47.3368 11.592 47.0855 11.2105 46.7554C10.8291 46.4247 10.5334 46.0176 10.3241 45.5337C10.1145 45.0496 10.0099 44.4912 10.0099 43.8583C10.0099 43.2347 10.1102 42.6787 10.3101 42.1902C10.5103 41.7017 10.7895 41.2922 11.1476 40.9615C11.506 40.6312 11.9318 40.3799 12.4249 40.208C12.9184 40.0355 13.4628 39.9495 14.0585 39.9495C14.6168 39.9495 15.1427 40.0333 15.6358 40.2009C16.1291 40.3682 16.5573 40.6127 16.9202 40.9337C17.283 41.2548 17.5717 41.6436 17.7856 42.0995C17.9997 42.5554 18.1069 43.0721 18.1069 43.6489V44.6263H12.1457C12.2577 45.3986 12.525 45.9523 12.9488 46.2876C13.372 46.6225 13.9049 46.79 14.547 46.79ZM14.0585 40.8569C13.7887 40.8569 13.5374 40.908 13.3046 41.0105C13.072 41.113 12.8694 41.2757 12.6975 41.499C12.525 41.7226 12.3857 42.011 12.2786 42.3645C12.1712 42.7183 12.1131 43.1463 12.1041 43.6489H16.0127C16.0127 43.1652 15.957 42.7462 15.8455 42.3928C15.7337 42.039 15.5871 41.7481 15.4056 41.5201C15.2243 41.2922 15.0146 41.1245 14.7774 41.0175C14.54 40.9104 14.3003 40.8569 14.0585 40.8569ZM26.1343 41.2061H23.2026V47.488H21.2478V41.2061H18.3166V40.2287H26.1343V41.2061ZM31.2994 42.7414C32.4905 42.7414 33.3586 42.9535 33.903 43.3769C34.4476 43.8 34.7196 44.3796 34.7196 45.1148C34.7196 45.8501 34.4476 46.4293 33.903 46.8527C33.3586 47.2765 32.4905 47.488 31.2994 47.488H27.251V40.2287H29.2052V42.7414H31.2994ZM29.2052 43.7188V46.5107H31.2994C31.7181 46.5107 32.044 46.3921 32.2764 46.1549C32.5092 45.9173 32.6256 45.5709 32.6256 45.1148C32.6256 44.6588 32.5092 44.3121 32.2764 44.0748C32.044 43.8374 31.7181 43.7188 31.2994 43.7188H29.2052ZM42.6768 45.1847C42.6768 46.0689 43.2119 46.5107 44.2822 46.5107H46.2367V43.8583H44.2822C43.2119 43.8583 42.6768 44.3004 42.6768 45.1847ZM46.2367 42.8813C46.2367 42.2111 46.062 41.7177 45.7132 41.4013C45.3642 41.0849 44.9103 40.9269 44.3518 40.9269C43.9332 40.9269 43.5237 40.9898 43.1235 41.1154C42.7234 41.2407 42.365 41.4108 42.0484 41.6247L41.5599 40.7872C41.7645 40.6476 41.9903 40.5264 42.2369 40.4243C42.4836 40.3218 42.7371 40.2357 42.9978 40.166C43.2584 40.096 43.5167 40.0425 43.7726 40.0053C44.0287 39.968 44.2682 39.9495 44.4917 39.9495C45.0874 39.9495 45.6131 40.0194 46.069 40.1589C46.5253 40.2987 46.9113 40.4985 47.2278 40.7592C47.5442 41.02 47.7838 41.3293 47.9468 41.6876C48.1097 42.046 48.1909 42.4439 48.1909 42.8813V47.488H44.2822C43.0163 47.488 42.0833 47.2972 41.4831 46.9156C40.883 46.5343 40.5826 45.9571 40.5826 45.1847C40.5826 44.4122 40.883 43.835 41.4831 43.4534C42.0833 43.0721 43.0163 42.8813 44.2822 42.8813H46.2367ZM57.1953 42.2529C57.1953 42.6067 57.0673 42.909 56.8113 43.1603C56.5556 43.4116 56.1485 43.5747 55.5901 43.6489C56.2599 43.7514 56.7649 43.9631 57.1047 44.2843C57.4442 44.6054 57.6143 44.9753 57.6143 45.394C57.6143 45.6919 57.5467 45.9688 57.4116 46.2249C57.2769 46.4804 57.0697 46.7015 56.7904 46.8877C56.5112 47.0738 56.1576 47.2206 55.7294 47.3275C55.3014 47.4347 54.7894 47.488 54.1937 47.488H50.0758V40.2287H53.7752C54.3708 40.2287 54.8824 40.2822 55.3108 40.3893C55.7388 40.4963 56.0927 40.6406 56.3719 40.8221C56.6511 41.0035 56.858 41.2176 56.9931 41.464C57.1278 41.7107 57.1953 41.9739 57.1953 42.2529ZM54.1937 46.5107C54.6127 46.5107 54.9385 46.4038 55.1711 46.1899C55.4039 45.9758 55.5201 45.7104 55.5201 45.394C55.5201 45.0774 55.4039 44.8124 55.1711 44.5983C54.9385 44.3844 54.6127 44.2773 54.1937 44.2773H52.0302V46.5107H54.1937ZM53.7752 43.2999C54.1937 43.2999 54.5196 43.1953 54.7526 42.9856C54.985 42.7764 55.1012 42.5321 55.1012 42.2529C55.1012 41.9739 54.985 41.7296 54.7526 41.5201C54.5196 41.3106 54.1937 41.2061 53.7752 41.2061H52.0302V43.2999H53.7752ZM65.7112 41.2061H62.7796V47.488H60.8247V41.2061H57.8935V40.2287H65.7112V41.2061ZM70.3181 46.8597C70.616 46.8597 70.8952 46.804 71.1556 46.6925C71.4163 46.5805 71.6445 46.4062 71.8397 46.1688C72.0351 45.9316 72.1911 45.622 72.3073 45.2404C72.4239 44.8587 72.482 44.3981 72.482 43.8583C72.482 43.3188 72.4239 42.858 72.3073 42.4764C72.1911 42.0947 72.0351 41.7853 71.8397 41.5481C71.6445 41.3107 71.4163 41.1361 71.1556 41.0244C70.8952 40.9128 70.616 40.8569 70.3181 40.8569C70.0203 40.8569 69.7411 40.9128 69.4804 41.0244C69.2196 41.1361 68.9919 41.3107 68.7965 41.5481C68.6009 41.7853 68.4449 42.0947 68.3287 42.4764C68.2125 42.858 68.1544 43.3188 68.1544 43.8583C68.1544 44.3981 68.2125 44.8587 68.3287 45.2404C68.4449 45.622 68.6009 45.9316 68.7965 46.1688C68.9919 46.4062 69.2196 46.5805 69.4804 46.6925C69.7411 46.804 70.0203 46.8597 70.3181 46.8597ZM70.3181 39.9495C70.9415 39.9495 71.5164 40.0355 72.0421 40.208C72.568 40.3799 73.0171 40.6312 73.3894 40.9615C73.7617 41.2922 74.0522 41.7017 74.2619 42.1902C74.4712 42.6787 74.5761 43.2347 74.5761 43.8583C74.5761 44.4912 74.4712 45.0496 74.2619 45.5337C74.0522 46.0176 73.7617 46.4247 73.3894 46.7554C73.0171 47.0855 72.568 47.3368 72.0421 47.5089C71.5164 47.6811 70.9415 47.7672 70.3181 47.7672C69.6854 47.7672 69.1081 47.6811 68.587 47.5089C68.0657 47.3368 67.6192 47.0855 67.2469 46.7554C66.8746 46.4247 66.5837 46.0176 66.3744 45.5337C66.1647 45.0496 66.0602 44.4912 66.0602 43.8583C66.0602 43.2347 66.1647 42.6787 66.3744 42.1902C66.5837 41.7017 66.8746 41.2922 67.2469 40.9615C67.6192 40.6312 68.0657 40.3799 68.587 40.208C69.1081 40.0355 69.6854 39.9495 70.3181 39.9495ZM81.486 46.2315L83.7894 40.2287H86.6515V47.488H84.6969V42.1831H84.5574L82.5332 47.488H80.3134L78.2751 42.1831H78.1356V47.488H76.1814V40.2287H79.0431L81.3465 46.2315H81.486ZM90.2112 45.1847C90.2112 46.0689 90.7463 46.5107 91.8166 46.5107H93.7711V43.8583H91.8166C90.7463 43.8583 90.2112 44.3004 90.2112 45.1847ZM93.7711 42.8813C93.7711 42.2111 93.5964 41.7177 93.2476 41.4013C92.8986 41.0849 92.4446 40.9269 91.8862 40.9269C91.4676 40.9269 91.0581 40.9898 90.6579 41.1154C90.2578 41.2407 89.8994 41.4108 89.5827 41.6247L89.0942 40.7872C89.2989 40.6476 89.5247 40.5264 89.7713 40.4243C90.018 40.3218 90.2715 40.2357 90.5322 40.166C90.7928 40.096 91.0511 40.0425 91.307 40.0053C91.5631 39.968 91.8025 39.9495 92.0261 39.9495C92.6217 39.9495 93.1474 40.0194 93.6034 40.1589C94.0597 40.2987 94.4457 40.4985 94.7621 40.7592C95.0786 41.02 95.3182 41.3293 95.481 41.6876C95.6441 42.046 95.7253 42.4439 95.7253 42.8813V47.488H91.8166C90.5507 47.488 89.6177 47.2972 89.0174 46.9156C88.4174 46.5343 88.117 45.9571 88.117 45.1847C88.117 44.4122 88.4174 43.835 89.0174 43.4534C89.6177 43.0721 90.5507 42.8813 91.8166 42.8813H93.7711ZM101.519 39.9495C101.817 39.9495 102.114 39.975 102.413 40.0263C102.71 40.0775 102.996 40.1475 103.271 40.2357C103.545 40.3242 103.801 40.4333 104.039 40.5636C104.276 40.6941 104.483 40.8382 104.66 40.9964L104.101 41.8339C103.72 41.5457 103.331 41.3223 102.936 41.1641C102.54 41.0059 102.114 40.9269 101.659 40.9269C101.323 40.9269 101.016 40.9804 100.737 41.0871C100.458 41.1942 100.216 41.3663 100.011 41.604C99.8064 41.841 99.6458 42.1457 99.5296 42.518C99.4134 42.8906 99.3551 43.337 99.3551 43.8583C99.3551 44.3796 99.4134 44.8261 99.5296 45.1984C99.6458 45.5709 99.8111 45.8757 100.025 46.1129C100.239 46.3505 100.498 46.5224 100.8 46.6296C101.102 46.7365 101.435 46.79 101.798 46.79C102.254 46.79 102.68 46.711 103.075 46.5528C103.471 46.3945 103.86 46.171 104.241 45.8827L104.8 46.7204C104.623 46.8786 104.415 47.0228 104.178 47.153C103.941 47.2835 103.685 47.3927 103.41 47.4809C103.136 47.5694 102.85 47.6393 102.552 47.6906C102.254 47.7417 101.956 47.7672 101.659 47.7672C100.998 47.7672 100.395 47.6811 99.8507 47.5089C99.3061 47.3368 98.8431 47.0855 98.4615 46.7554C98.0802 46.4247 97.7845 46.0176 97.5752 45.5337C97.3655 45.0496 97.2612 44.4912 97.2612 43.8583C97.2612 43.2347 97.3655 42.6787 97.5752 42.1902C97.7845 41.7017 98.0756 41.2922 98.4477 40.9615C98.82 40.6312 99.2665 40.3799 99.7879 40.208C100.309 40.0355 100.886 39.9495 101.519 39.9495ZM112.966 41.2061H110.035V47.488H108.08V41.2061H105.149V40.2287H112.966V41.2061ZM117.852 46.79C118.309 46.79 118.734 46.711 119.13 46.5528C119.525 46.3945 119.914 46.171 120.296 45.8827L120.854 46.7204C120.677 46.8786 120.47 47.0228 120.233 47.153C119.995 47.2835 119.74 47.3927 119.465 47.4809C119.19 47.5694 118.904 47.6393 118.606 47.6906C118.309 47.7417 118.011 47.7672 117.713 47.7672C117.052 47.7672 116.449 47.6811 115.905 47.5089C115.36 47.3368 114.898 47.0855 114.516 46.7554C114.135 46.4247 113.839 46.0176 113.63 45.5337C113.42 45.0496 113.315 44.4912 113.315 43.8583C113.315 43.2347 113.415 42.6787 113.616 42.1902C113.816 41.7017 114.095 41.2922 114.453 40.9615C114.811 40.6312 115.237 40.3799 115.73 40.208C116.224 40.0355 116.768 39.9495 117.364 39.9495C117.922 39.9495 118.448 40.0333 118.941 40.2009C119.434 40.3682 119.863 40.6127 120.226 40.9337C120.589 41.2548 120.877 41.6436 121.091 42.0995C121.305 42.5554 121.412 43.0721 121.412 43.6489V44.6263H115.451C115.563 45.3986 115.83 45.9523 116.254 46.2876C116.677 46.6225 117.21 46.79 117.852 46.79ZM117.364 40.8569C117.094 40.8569 116.843 40.908 116.61 41.0105C116.377 41.113 116.175 41.2757 116.003 41.499C115.83 41.7226 115.691 42.011 115.584 42.3645C115.477 42.7183 115.419 43.1463 115.41 43.6489H119.318C119.318 43.1652 119.262 42.7462 119.151 42.3928C119.039 42.039 118.893 41.7481 118.711 41.5201C118.53 41.2922 118.32 41.1245 118.083 41.0175C117.845 40.9104 117.606 40.8569 117.364 40.8569ZM124.972 41.2061V46.5107H126.717C127.034 46.5107 127.324 46.4621 127.59 46.3642C127.855 46.2665 128.083 46.1105 128.274 45.8966C128.465 45.6825 128.614 45.4081 128.721 45.0732C128.828 44.7378 128.881 44.333 128.881 43.8583C128.881 43.3839 128.828 42.979 128.721 42.6437C128.614 42.3088 128.465 42.0342 128.274 41.8203C128.083 41.6062 127.855 41.4504 127.59 41.3527C127.324 41.2548 127.034 41.2061 126.717 41.2061H124.972ZM126.717 40.2287C127.359 40.2287 127.944 40.3123 128.469 40.48C128.995 40.6476 129.444 40.8897 129.816 41.2061C130.189 41.5221 130.475 41.9039 130.675 42.3508C130.875 42.7975 130.975 43.2999 130.975 43.8583C130.975 44.417 130.875 44.9192 130.675 45.3661C130.475 45.813 130.189 46.1945 129.816 46.5107C129.444 46.8272 128.995 47.069 128.469 47.2367C127.944 47.4043 127.359 47.488 126.717 47.488H124.972V50.0009H123.018V40.2287H126.717ZM136.489 39.9495C136.787 39.9495 137.085 39.975 137.383 40.0263C137.681 40.0775 137.967 40.1475 138.241 40.2357C138.516 40.3242 138.772 40.4333 139.009 40.5636C139.247 40.6941 139.454 40.8382 139.63 40.9964L139.072 41.8339C138.691 41.5457 138.302 41.3223 137.906 41.1641C137.511 41.0059 137.085 40.9269 136.629 40.9269C136.294 40.9269 135.987 40.9804 135.708 41.0871C135.428 41.1942 135.186 41.3663 134.982 41.604C134.777 41.841 134.616 42.1457 134.5 42.518C134.384 42.8906 134.326 43.337 134.326 43.8583C134.326 44.3796 134.384 44.8261 134.5 45.1984C134.616 45.5709 134.782 45.8757 134.996 46.1129C135.21 46.3505 135.468 46.5224 135.77 46.6296C136.073 46.7365 136.406 46.79 136.769 46.79C137.225 46.79 137.65 46.711 138.046 46.5528C138.442 46.3945 138.83 46.171 139.212 45.8827L139.77 46.7204C139.593 46.8786 139.386 47.0228 139.149 47.153C138.911 47.2835 138.656 47.3927 138.381 47.4809C138.106 47.5694 137.82 47.6393 137.522 47.6906C137.225 47.7417 136.927 47.7672 136.629 47.7672C135.968 47.7672 135.366 47.6811 134.821 47.5089C134.277 47.3368 133.814 47.0855 133.432 46.7554C133.051 46.4247 132.755 46.0176 132.546 45.5337C132.336 45.0496 132.231 44.4912 132.231 43.8583C132.231 43.2347 132.336 42.6787 132.546 42.1902C132.755 41.7017 133.046 41.2922 133.418 40.9615C133.79 40.6312 134.237 40.3799 134.758 40.208C135.28 40.0355 135.857 39.9495 136.489 39.9495ZM144.656 44.347H143.19V47.488H141.236V40.2287H143.19V43.3698H144.656L146.82 40.2287H148.914L146.471 43.7888L149.054 47.488H146.82L144.656 44.347ZM158.128 40.2287V47.488H156.173V42.0436H156.034L152.823 47.488H150.31V40.2287H152.265V45.6732H152.404L155.615 40.2287H158.128ZM164.549 43.8165L167.621 47.488H165.387L163.432 45.1568L161.478 47.488H159.245L162.316 43.8165L159.314 40.2287H161.548L163.432 42.4901L165.317 40.2287H167.551L164.549 43.8165Z" fill="#003D9E"/>
<path d="M212.79 37.316H227.353L228.976 34.1621H212.79C211.356 34.1621 210.189 34.6596 209.124 35.4424C208.013 36.2586 206.983 37.4045 205.884 38.6282C204.73 39.9118 203.474 41.3093 201.908 42.4042C200.311 43.5203 198.422 44.2979 196.057 44.2786C194.11 44.2629 192.236 44.0906 190.422 43.7648C188.601 43.4377 186.846 42.9576 185.145 42.329C184.364 42.0401 183.589 41.7172 182.821 41.362C182.11 41.0333 181.398 40.6719 180.686 40.2797H174.816C176.065 41.1797 177.328 41.9967 178.609 42.729C180.384 43.743 182.196 44.5964 184.061 45.2858C185.934 45.9779 187.853 46.5032 189.835 46.8582C191.824 47.2145 193.885 47.4028 196.032 47.4207C199.097 47.4452 201.435 46.5627 203.347 45.2936C205.283 44.0086 206.816 42.3026 208.224 40.7352L208.234 40.7245C209.872 38.9028 211.3 37.316 212.79 37.316ZM212.79 13.2592H239.732L241.355 10.105H212.79C211.3 10.105 209.872 8.51824 208.234 6.69649L208.224 6.68583C206.816 5.11778 205.283 3.41243 203.347 2.12743C201.435 0.858118 199.097 -0.024413 196.032 0.000514936C193.885 0.0178037 191.824 0.206572 189.835 0.5628C187.853 0.917823 185.934 1.44332 184.061 2.13527C182.196 2.82481 180.384 3.67819 178.609 4.6922C177.328 5.42436 176.065 6.24135 174.816 7.14137H180.686C181.398 6.74935 182.11 6.3877 182.821 6.05901C183.589 5.70399 184.364 5.38093 185.145 5.09205C186.846 4.46342 188.601 3.98336 190.422 3.65648C192.236 3.33061 194.11 3.15812 196.057 3.14244C198.422 3.12314 200.311 3.90073 201.908 5.01686C203.474 6.11168 204.73 7.50926 205.884 8.79285C206.983 10.0167 208.013 11.1624 209.124 11.9788C210.189 12.7616 211.356 13.2592 212.79 13.2592ZM218.561 29.9993H231.118L232.741 26.8451H218.561C217.916 26.8451 217.302 26.75 216.744 26.5787C216.157 26.3984 215.633 26.1306 215.201 25.7979C214.844 25.5233 214.554 25.2035 214.352 24.8571C214.142 24.4969 214.027 24.1087 214.027 23.7106C214.027 23.3124 214.142 22.9238 214.352 22.5641C214.554 22.2176 214.844 21.8977 215.201 21.6231C215.633 21.2904 216.157 21.0226 216.744 20.8425C217.302 20.671 217.916 20.5759 218.561 20.5759H235.967L237.59 17.4219H218.561C217.557 17.4219 216.595 17.5803 215.715 17.867C214.801 18.1645 213.974 18.5982 213.279 19.1343C212.515 19.7229 211.901 20.4342 211.485 21.2293C211.091 21.9831 210.873 22.8217 210.873 23.7106C210.873 24.5996 211.091 25.4379 211.485 26.1919C211.901 26.9872 212.515 27.6985 213.279 28.2869C213.974 28.8229 214.801 29.2567 215.715 29.554C216.595 29.8407 217.557 29.9993 218.561 29.9993Z" fill="#003D9E"/>
<path d="M3.65094 31.2742C3.43945 31.2742 3.25892 31.2 3.11116 31.0523C2.9628 30.9037 2.88923 30.7242 2.88923 30.5125V28.1636C2.88923 27.9304 2.9628 27.7397 3.11116 27.5919C3.25892 27.4435 3.43945 27.37 3.65094 27.37H4.82536C5.43932 27.37 5.96803 27.2375 6.41272 26.9731C6.8574 26.7082 7.26951 26.285 7.65107 25.703C8.03182 25.1208 8.41278 24.3752 8.79354 23.4649L14.8567 9.65563C14.9413 9.44414 15.0579 9.29076 15.2056 9.19567C15.354 9.10078 15.5233 9.05273 15.7141 9.05273H18.666C18.8353 9.05273 18.9885 9.11666 19.1266 9.24351C19.2639 9.37057 19.3326 9.51833 19.3326 9.68759C19.3326 9.79374 19.3222 9.88883 19.3007 9.97346C19.28 10.0581 19.248 10.1427 19.2056 10.2274L12.8248 24.7984C12.2961 25.9623 11.7988 26.9516 11.3334 27.7668C10.8678 28.5812 10.3594 29.2478 9.80915 29.7661C9.25913 30.2849 8.60838 30.6659 7.85693 30.9093C7.10567 31.1528 6.20103 31.2742 5.14239 31.2742H3.65094ZM8.5716 25.7189L0.0956865 10.0683C0.0317583 9.9415 0 9.83595 0 9.75132C0 9.56054 0.0741772 9.3969 0.222539 9.25879C0.370297 9.12149 0.529317 9.05273 0.698586 9.05273H3.80975C3.99993 9.05273 4.16437 9.10078 4.30168 9.19567C4.43898 9.29076 4.54995 9.44414 4.63458 9.65563L10.8887 21.338L8.5716 25.7189ZM29.8086 31.2742C29.5963 31.2742 29.4166 31.2054 29.2688 31.0681C29.1203 30.93 29.0461 30.7449 29.0461 30.5125V9.84641C29.0461 9.61341 29.1203 9.42324 29.2688 9.27488C29.4166 9.12712 29.5963 9.05273 29.8086 9.05273H46.4426C46.675 9.05273 46.8658 9.12712 47.0135 9.27488C47.1621 9.42324 47.2363 9.61341 47.2363 9.84641V30.5125C47.2363 30.7242 47.1621 30.9037 47.0135 31.0523C46.8658 31.2 46.675 31.2742 46.4426 31.2742H43.5851C43.3736 31.2742 43.1939 31.2 43.0455 31.0523C42.8978 30.9037 42.8234 30.7242 42.8234 30.5125V13.0209H33.4589V30.5125C33.4589 30.7242 33.3902 30.9037 33.2523 31.0523C33.1148 31.2 32.9296 31.2742 32.6972 31.2742H29.8086ZM58.9178 31.5918C56.569 31.5918 54.707 30.9141 53.3313 29.56C51.9557 28.2058 51.2149 26.2794 51.1087 23.7827C51.0878 23.5711 51.0774 23.3013 51.0774 22.9732C51.0774 22.6449 51.0878 22.3856 51.1087 22.1954C51.1934 20.5867 51.5588 19.2063 52.204 18.0525C52.8499 16.8988 53.7441 16.0102 54.8867 15.3858C56.0292 14.7614 57.3729 14.4492 58.9178 14.4492C60.632 14.4492 62.0716 14.8039 63.2356 15.5127C64.3998 16.2217 65.2779 17.2062 65.8703 18.4652C66.4627 19.7243 66.7591 21.1792 66.7591 22.8302V23.4969C66.7591 23.7084 66.6849 23.8881 66.5371 24.0366C66.3886 24.1844 66.1986 24.2586 65.9654 24.2586H55.4263C55.4263 24.2586 55.4263 24.2906 55.4263 24.3537C55.4263 24.4174 55.4263 24.4701 55.4263 24.5125C55.4472 25.2533 55.5901 25.936 55.8551 26.5604C56.1195 27.1846 56.5107 27.687 57.0295 28.0677C57.5478 28.4487 58.1666 28.6395 58.8867 28.6395C59.4791 28.6395 59.9764 28.5492 60.3781 28.3695C60.7806 28.19 61.1087 27.9831 61.3626 27.7507C61.6165 27.5177 61.7962 27.3275 61.9023 27.1792C62.0923 26.9253 62.2463 26.7719 62.3623 26.7186C62.4787 26.6657 62.6536 26.6394 62.886 26.6394H65.6164C65.8281 26.6394 66.003 26.7033 66.1403 26.8302C66.2776 26.9572 66.3359 27.1152 66.3144 27.306C66.2935 27.6446 66.1188 28.0575 65.7907 28.5444C65.4632 29.0307 64.9922 29.5073 64.3782 29.9727C63.7643 30.4383 62.9978 30.8247 62.077 31.1313C61.1559 31.4378 60.1035 31.5918 58.9178 31.5918ZM55.4263 21.5919H62.4421V21.4968C62.4421 20.6714 62.304 19.9465 62.0292 19.322C61.7538 18.6976 61.3521 18.2113 60.8228 17.8617C60.2935 17.5128 59.6588 17.3381 58.9178 17.3381C58.1776 17.3381 57.5422 17.5128 57.0136 17.8617C56.4843 18.2113 56.0875 18.6976 55.8231 19.322C55.5582 19.9465 55.4263 20.6714 55.4263 21.4968V21.5919ZM75.1718 31.2742C74.9389 31.2742 74.7535 31.2 74.6162 31.0523C74.4789 30.9037 74.4101 30.7242 74.4101 30.5125V18.1315H69.2356C69.0026 18.1315 68.8174 18.0582 68.6799 17.9096C68.5426 17.7612 68.4739 17.5711 68.4739 17.3381V15.5288C68.4739 15.3171 68.5426 15.1376 68.6799 14.989C68.8174 14.8412 69.0026 14.7671 69.2356 14.7671H83.6478C83.8801 14.7671 84.0709 14.8412 84.2195 14.989C84.3672 15.1376 84.4414 15.3171 84.4414 15.5288V17.3381C84.4414 17.5711 84.3672 17.7612 84.2195 17.9096C84.0709 18.0582 83.8801 18.1315 83.6478 18.1315H78.5052V30.5125C78.5052 30.7242 78.431 30.9037 78.2824 31.0523C78.1347 31.2 77.9551 31.2742 77.7434 31.2742H75.1718ZM87.7428 35.4705C87.5327 35.4705 87.3516 35.397 87.203 35.2486C87.0553 35.1008 86.9811 34.9205 86.9811 34.7088V15.5288C86.9811 15.3171 87.0553 15.1368 87.203 14.989C87.351 14.8412 87.5313 14.7671 87.7428 14.7671H90.2507C90.4837 14.7671 90.669 14.8412 90.8063 14.989C90.9436 15.1376 91.0124 15.3171 91.0124 15.5288V16.7983C91.5208 16.1212 92.1876 15.5607 93.0124 15.1161C93.8379 14.672 94.8645 14.4492 96.0918 14.4492C97.2136 14.4492 98.1868 14.6298 99.0124 14.989C99.8379 15.3491 100.525 15.8625 101.075 16.5283C101.626 17.1951 102.049 17.9838 102.346 18.894C102.642 19.8035 102.811 20.8087 102.854 21.9095C102.874 22.269 102.886 22.6395 102.886 23.0202C102.886 23.4018 102.874 23.7827 102.854 24.1635C102.832 25.2215 102.674 26.2003 102.378 27.1C102.081 27.9992 101.653 28.7824 101.091 29.449C100.531 30.1156 99.8379 30.6395 99.0124 31.0203C98.1868 31.4013 97.2136 31.5918 96.0918 31.5918C94.9492 31.5918 93.9752 31.3852 93.1712 30.9724C92.3671 30.5597 91.7109 30.0151 91.2031 29.3381V34.7088C91.2031 34.9197 91.1344 35.1014 90.9971 35.2486C90.8598 35.397 90.673 35.4705 90.4414 35.4705H87.7428ZM94.9174 28.1948C95.8275 28.1948 96.5365 27.9992 97.0443 27.6078C97.5521 27.216 97.9226 26.7033 98.155 26.0679C98.388 25.433 98.5253 24.7344 98.5677 23.9727C98.5892 23.3381 98.5892 22.7032 98.5677 22.0685C98.5253 21.306 98.388 20.6083 98.155 19.9728C97.9226 19.3379 97.5521 18.8247 97.0443 18.4333C96.5365 18.0421 95.8275 17.8465 94.9174 17.8465C94.0495 17.8465 93.3459 18.0469 92.8064 18.4494C92.2666 18.8516 91.8754 19.3643 91.6319 19.9887C91.3883 20.6131 91.2454 21.2534 91.2031 21.9095C91.1816 22.2905 91.1712 22.6927 91.1712 23.1159C91.1712 23.5391 91.1816 23.952 91.2031 24.3537C91.2246 24.9891 91.3724 25.5975 91.6478 26.1794C91.9224 26.7608 92.3249 27.2423 92.8542 27.6239C93.3827 28.0046 94.0711 28.1948 94.9174 28.1948ZM113.742 31.5918C112.049 31.5918 110.626 31.2957 109.472 30.7027C108.319 30.1102 107.441 29.2741 106.838 28.1948C106.235 27.1152 105.891 25.8562 105.806 24.4174C105.785 24.0366 105.774 23.5711 105.774 23.0202C105.774 22.4702 105.785 22.0046 105.806 21.6239C105.891 20.1636 106.245 18.8989 106.87 17.8306C107.494 16.7615 108.383 15.931 109.536 15.338C110.689 14.7456 112.091 14.4492 113.742 14.4492C115.393 14.4492 116.795 14.7456 117.948 15.338C119.102 15.931 119.991 16.7615 120.615 17.8306C121.239 18.8989 121.594 20.1636 121.678 21.6239C121.699 22.0046 121.71 22.4702 121.71 23.0202C121.71 23.5711 121.699 24.0366 121.678 24.4174C121.594 25.8562 121.25 27.1152 120.647 28.1948C120.043 29.2741 119.165 30.1102 118.012 30.7027C116.858 31.2957 115.435 31.5918 113.742 31.5918ZM113.742 28.4487C114.864 28.4487 115.732 28.0941 116.345 27.3852C116.959 26.6762 117.297 25.6342 117.361 24.2586C117.382 23.9408 117.393 23.5288 117.393 23.0202C117.393 22.5124 117.382 22.0997 117.361 21.7827C117.297 20.407 116.959 19.3643 116.345 18.6554C115.732 17.9464 114.864 17.592 113.742 17.592C112.62 17.592 111.753 17.9464 111.139 18.6554C110.525 19.3643 110.187 20.407 110.123 21.7827C110.102 22.0997 110.092 22.5124 110.092 23.0202C110.092 23.5288 110.102 23.9408 110.123 24.2586C110.187 25.6342 110.525 26.6762 111.139 27.3852C111.753 28.0941 112.62 28.4487 113.742 28.4487ZM125.996 31.2742C125.784 31.2742 125.604 31.2 125.456 31.0523C125.308 30.9037 125.234 30.7242 125.234 30.5125V15.5288C125.234 15.3171 125.308 15.1376 125.456 14.989C125.604 14.8412 125.784 14.7671 125.996 14.7671H133.043C135.286 14.7671 136.948 15.1798 138.027 16.0046C139.106 16.8303 139.646 17.9416 139.646 19.3379C139.646 20.2273 139.477 20.9148 139.138 21.4017C138.799 21.888 138.334 22.3112 137.742 22.6712C138.482 23.0098 139.059 23.5232 139.472 24.2107C139.884 24.8989 140.09 25.6549 140.09 26.4806C140.09 28.0046 139.524 29.1841 138.392 30.02C137.26 30.8558 135.593 31.2742 133.392 31.2742H125.996ZM129.297 28.4175H133.107C133.953 28.4175 134.63 28.2585 135.138 27.9409C135.646 27.6239 135.9 27.1265 135.9 26.4486C135.9 25.7508 135.667 25.243 135.202 24.9252C134.736 24.6076 134.038 24.4494 133.107 24.4494H129.297V28.4175ZM129.297 21.4968H132.98C133.826 21.4968 134.493 21.3221 134.979 20.9731C135.466 20.6241 135.71 20.1107 135.71 19.4336C135.71 18.7559 135.461 18.2855 134.964 18.0206C134.467 17.7562 133.805 17.6237 132.98 17.6237H129.297V21.4968ZM144.471 31.2742C144.281 31.2742 144.111 31.2 143.963 31.0523C143.815 30.9037 143.741 30.7344 143.741 30.5444V15.5288C143.741 15.3171 143.815 15.1376 143.963 14.989C144.111 14.8412 144.291 14.7671 144.503 14.7671H147.137C147.37 14.7671 147.556 14.8412 147.693 14.989C147.831 15.1376 147.9 15.3171 147.9 15.5288V28.0677L146.788 27.2743L155.518 15.2749C155.624 15.1263 155.74 15.0049 155.867 14.91C155.995 14.8143 156.164 14.7671 156.376 14.7671H158.788C158.979 14.7671 159.148 14.8356 159.296 14.9731C159.444 15.111 159.518 15.2749 159.518 15.4657V30.5125C159.518 30.7242 159.444 30.9037 159.296 31.0523C159.148 31.2 158.968 31.2742 158.756 31.2742H156.122C155.889 31.2742 155.703 31.2 155.566 31.0523C155.428 30.9037 155.359 30.7242 155.359 30.5125V18.5445L156.534 18.7033L147.741 30.7664C147.656 30.8934 147.545 31.0098 147.407 31.1154C147.27 31.2215 147.095 31.2742 146.884 31.2742H144.471ZM173.962 31.2742C173.75 31.2742 173.57 31.2 173.422 31.0523C173.274 30.9037 173.2 30.7242 173.2 30.5125V25.116C172.671 25.5816 172.02 25.9249 171.248 26.1475C170.475 26.3696 169.602 26.4806 168.629 26.4806C166.702 26.4806 165.216 26.0206 164.168 25.1001C163.121 24.1796 162.597 22.6927 162.597 20.6394V15.5288C162.597 15.3171 162.671 15.1376 162.819 14.989C162.967 14.8412 163.147 14.7671 163.359 14.7671H166.089C166.301 14.7671 166.481 14.8412 166.629 14.989C166.777 15.1376 166.851 15.3171 166.851 15.5288V20.4175C166.851 21.2638 167.078 21.8721 167.534 22.2426C167.989 22.6131 168.724 22.7983 169.74 22.7983C170.777 22.7983 171.613 22.661 172.247 22.3856C172.882 22.1108 173.2 21.6239 173.2 20.9253V15.5288C173.2 15.3171 173.274 15.1376 173.422 14.989C173.57 14.8412 173.75 14.7671 173.962 14.7671H176.819C177.031 14.7671 177.21 14.8412 177.359 14.989C177.507 15.1376 177.581 15.3171 177.581 15.5288V30.5125C177.581 30.7242 177.507 30.9037 177.359 31.0523C177.21 31.2 177.031 31.2742 176.819 31.2742H173.962ZM186.66 31.5918C185.559 31.5918 184.565 31.3747 183.675 30.9413C182.786 30.5069 182.083 29.9249 181.564 29.1951C181.046 28.4646 180.787 27.6446 180.787 26.7345C180.787 25.2533 181.39 24.0734 182.596 23.1951C183.803 22.3168 185.379 21.7292 187.326 21.4331L191.675 20.7982V20.1316C191.675 19.243 191.453 18.5547 191.008 18.0684C190.564 17.5815 189.802 17.3381 188.723 17.3381C187.961 17.3381 187.342 17.492 186.866 17.7986C186.39 18.1052 186.035 18.5125 185.802 19.0209C185.633 19.2957 185.39 19.4336 185.072 19.4336H182.564C182.331 19.4336 182.157 19.3699 182.041 19.243C181.924 19.116 181.866 18.9467 181.866 18.7352C181.887 18.3967 182.03 17.9838 182.295 17.4969C182.559 17.0106 182.961 16.5396 183.501 16.0844C184.041 15.6293 184.744 15.2429 185.612 14.9259C186.48 14.6082 187.527 14.4492 188.755 14.4492C190.088 14.4492 191.214 14.6137 192.136 14.9412C193.056 15.2692 193.792 15.7085 194.342 16.2593C194.892 16.8093 195.294 17.4545 195.548 18.1955C195.802 18.9363 195.929 19.7189 195.929 20.5443V30.5125C195.929 30.7242 195.855 30.9037 195.707 31.0523C195.559 31.2 195.379 31.2742 195.167 31.2742H192.596C192.363 31.2742 192.178 31.2 192.04 31.0523C191.903 30.9037 191.834 30.7242 191.834 30.5125V29.2741C191.559 29.6551 191.188 30.0256 190.723 30.3856C190.257 30.7449 189.691 31.0362 189.024 31.2583C188.358 31.4803 187.57 31.5918 186.66 31.5918ZM187.739 28.5755C188.479 28.5755 189.152 28.4175 189.755 28.0997C190.358 27.7821 190.834 27.2901 191.183 26.6235C191.532 25.9569 191.707 25.116 191.707 24.0998V23.4329L188.533 23.9408C187.284 24.1315 186.353 24.4383 185.739 24.8615C185.125 25.2853 184.818 25.8035 184.818 26.4175C184.818 26.8828 184.961 27.2797 185.247 27.6078C185.532 27.9361 185.898 28.1787 186.342 28.3377C186.787 28.4965 187.252 28.5755 187.739 28.5755Z" fill="black"/>
</svg>
