<svg width="12" height="15" viewBox="0 0 12 15" fill="none" xmlns="http://www.w3.org/2000/svg">
<path fill-rule="evenodd" clip-rule="evenodd" d="M6.01614 14.1194C5.98692 14.0998 5.92881 14.0597 5.81801 13.9839C0.122402 10.0891 1.05707 5.63981 1.05707 5.63981L1.0575 5.63956C1.22753 3.04882 3.38238 1 6.01614 1C8.64989 1 10.8047 3.04882 10.9748 5.63956L10.9752 5.63981C10.9752 5.63981 11.9099 10.0891 6.21426 13.9839C6.10346 14.0597 6.04536 14.0998 6.01614 14.1194ZM6.01614 4.19961C6.99381 4.19961 7.78635 4.99218 7.78635 5.96986C7.78635 6.94753 6.99381 7.74007 6.01614 7.74007C5.03846 7.74007 4.24593 6.94753 4.24593 5.96986C4.24593 4.99218 5.03846 4.19961 6.01614 4.19961Z" stroke="#DBDBDB" stroke-width="0.8" stroke-miterlimit="22.9256"/>
</svg>
