<svg width="13" height="16" viewBox="0 0 13 16" fill="none" xmlns="http://www.w3.org/2000/svg">
<path fill-rule="evenodd" clip-rule="evenodd" d="M6.3533 15.0012C6.32212 14.9803 6.2601 14.9375 6.14186 14.8567C0.0634138 10.7001 1.06091 5.95168 1.06091 5.95168L1.06136 5.95142C1.24283 3.18653 3.54252 1 6.3533 1C9.16408 1 11.4638 3.18653 11.6452 5.95142L11.6457 5.95168C11.6457 5.95168 12.6432 10.7001 6.56475 14.8567C6.4465 14.9375 6.38449 14.9803 6.3533 15.0012ZM6.3533 4.41468C7.39669 4.41468 8.2425 5.26052 8.2425 6.30391C8.2425 7.3473 7.39669 8.19311 6.3533 8.19311C5.30991 8.19311 4.4641 7.3473 4.4641 6.30391C4.4641 5.26052 5.30991 4.41468 6.3533 4.41468Z" stroke="#848484" stroke-width="0.8" stroke-miterlimit="22.9256"/>
</svg>
