<svg width="24" height="24" viewBox="0 0 24 24" fill="none" xmlns="http://www.w3.org/2000/svg">
<path fill-rule="evenodd" clip-rule="evenodd" d="M12 1C18.0751 1 23 5.92487 23 12C23 18.0751 18.0751 23 12 23C5.92488 23 1 18.0751 1 12C1 5.92487 5.92488 1 12 1ZM18.0066 9.33839C18.0066 11.098 17.2343 12.5212 16.2312 13.9163C15.8461 14.4519 15.2043 15.2151 14.7471 15.6723L14.1987 16.2211C14.1236 16.2971 14.0796 16.319 14.0068 16.3865L13.6123 16.7319C12.7554 17.4792 11.4153 18.2491 10.246 18.3919C10.1175 18.4076 10.0513 18.4226 9.91897 18.4222C9.77031 18.4214 9.66814 18.452 9.56346 18.4465L8.91201 18.3819C7.96384 18.2133 7.4418 17.8697 6.77398 17.2796C6.63865 17.1601 6.30518 16.8793 6.20749 16.749C5.87797 16.3101 5.95273 15.9603 6.26982 15.5383C6.56181 15.1501 7.41803 14.4153 7.81584 14.1504C8.33734 13.8032 8.88733 13.6138 9.46762 13.948C9.61509 14.0327 9.73721 14.1646 9.86364 14.2664L10.2394 14.6051C10.3327 14.7272 10.4813 14.8711 10.608 14.951C11.5161 15.5235 12.6852 14.2458 13.255 13.67C13.3271 13.597 13.3474 13.5503 13.4198 13.4777L14.0518 12.7065C14.1001 12.6378 14.1562 12.5707 14.2049 12.5021C14.4505 12.1546 14.8681 11.4566 14.8681 11.0223C14.8681 10.663 14.8398 10.4733 14.5305 10.1865L13.9829 9.76447C13.2701 9.16434 13.0227 8.79478 13.3919 7.81094C13.503 7.51464 13.9196 6.87018 14.1079 6.58781C14.4875 6.01869 15.0352 5.23549 15.8144 5.68773C15.9753 5.78112 16.3905 6.16842 16.6144 6.34193C17.4278 6.97349 18.0066 8.23218 18.0066 9.33839V9.33839Z" stroke="#35393F" stroke-miterlimit="22.9256"/>
</svg>
