<svg width="15" height="15" viewBox="0 0 15 15" fill="none" xmlns="http://www.w3.org/2000/svg">
<path fill-rule="evenodd" clip-rule="evenodd" d="M7.45341 1C11.0175 1 13.9068 3.88929 13.9068 7.45341C13.9068 11.0175 11.0175 13.9068 7.45341 13.9068C3.88929 13.9068 1 11.0175 1 7.45341C1 3.88929 3.88929 1 7.45341 1ZM10.9773 5.89191C10.9773 6.92421 10.5242 7.75918 9.93573 8.57765C9.70981 8.89187 9.3333 9.33961 9.06503 9.60788L8.74335 9.92981C8.69929 9.9744 8.67348 9.98726 8.63075 10.0268L8.39933 10.2295C7.89655 10.6679 7.11041 11.1196 6.42437 11.2033C6.34897 11.2126 6.31013 11.2214 6.23252 11.2211C6.14531 11.2207 6.08537 11.2386 6.02395 11.2354L5.64177 11.1975C5.0855 11.0986 4.77924 10.897 4.38744 10.5508C4.30804 10.4807 4.11241 10.316 4.0551 10.2395C3.86177 9.98204 3.90563 9.7768 4.09166 9.52925C4.26297 9.30148 4.76529 8.87038 4.99867 8.71499C5.30462 8.51133 5.62729 8.40018 5.96773 8.59623C6.05424 8.64594 6.12589 8.72333 6.20006 8.78306L6.42052 8.98175C6.47527 9.0534 6.56241 9.13781 6.63676 9.18467C7.16951 9.52056 7.85537 8.77097 8.18971 8.43316C8.23199 8.39032 8.24387 8.36291 8.28639 8.32036L8.65715 7.86792C8.68551 7.82761 8.71842 7.78821 8.74696 7.748C8.89106 7.5441 9.13605 7.1346 9.13605 6.87983C9.13605 6.66905 9.11944 6.55772 8.93796 6.38946L8.6167 6.14188C8.19854 5.7898 8.05338 5.57299 8.27001 4.9958C8.33518 4.82197 8.57957 4.44388 8.69006 4.27822C8.91276 3.94433 9.23406 3.48485 9.69123 3.75017C9.78563 3.80496 10.0292 4.03218 10.1605 4.13397C10.6377 4.50449 10.9773 5.24293 10.9773 5.89191V5.89191Z" stroke="black" stroke-miterlimit="22.9256"/>
</svg>
