<svg width="14" height="14" viewBox="0 0 14 14" fill="none" xmlns="http://www.w3.org/2000/svg">
<path fill-rule="evenodd" clip-rule="evenodd" d="M7.06191 1C10.4098 1 13.1238 3.71401 13.1238 7.06191C13.1238 10.4098 10.4098 13.1238 7.06191 13.1238C3.71401 13.1238 1 10.4098 1 7.06191C1 3.71401 3.71401 1 7.06191 1ZM10.372 5.59514C10.372 6.56481 9.94642 7.34913 9.39364 8.11795C9.18143 8.41311 8.82776 8.83369 8.57576 9.08568L8.27359 9.38808C8.23221 9.42996 8.20797 9.44205 8.16783 9.47922L7.95045 9.66957C7.47817 10.0814 6.73972 10.5057 6.0953 10.5844C6.02447 10.593 5.98799 10.6013 5.91509 10.6011C5.83317 10.6007 5.77686 10.6175 5.71917 10.6145L5.36017 10.5789C4.83765 10.486 4.54997 10.2966 4.18194 9.97138C4.10736 9.90553 3.92359 9.7508 3.86976 9.67899C3.68816 9.43714 3.72936 9.24435 3.90411 9.01182C4.06502 8.79786 4.53687 8.39292 4.75609 8.24696C5.04348 8.05565 5.34657 7.95124 5.66636 8.1354C5.74762 8.18209 5.81493 8.25479 5.8846 8.3109L6.09168 8.49753C6.14311 8.56483 6.22497 8.64412 6.2948 8.68815C6.79523 9.00366 7.43949 8.29954 7.75355 7.98222C7.79326 7.94198 7.80442 7.91624 7.84436 7.87626L8.19263 7.45127C8.21927 7.41341 8.25018 7.3764 8.27698 7.33863C8.41235 7.1471 8.64247 6.76244 8.64247 6.52313C8.64247 6.32514 8.62687 6.22056 8.4564 6.06251L8.15463 5.82995C7.76184 5.49923 7.62549 5.29557 7.82898 4.75339C7.89019 4.59011 8.11976 4.23496 8.22354 4.07935C8.43273 3.76571 8.73454 3.3341 9.16398 3.58333C9.25265 3.63479 9.48146 3.84823 9.6048 3.94385C10.0531 4.29189 10.372 4.98553 10.372 5.59514V5.59514Z" stroke="#DBDBDB" stroke-width="0.7" stroke-miterlimit="22.9256"/>
</svg>
