<svg width="27" height="27" viewBox="0 0 27 27" fill="none" xmlns="http://www.w3.org/2000/svg">
<path fill-rule="evenodd" clip-rule="evenodd" d="M13.5 1C20.4035 1 26 6.59645 26 13.5C26 20.4035 20.4035 26 13.5 26C6.59645 26 1 20.4035 1 13.5C1 6.59645 6.59645 1 13.5 1ZM20.3257 10.4754C20.3257 12.475 19.448 14.0923 18.3082 15.6776C17.8706 16.2862 17.1413 17.1535 16.6217 17.6731L15.9986 18.2967C15.9132 18.3831 15.8632 18.408 15.7805 18.4846L15.3322 18.8772C14.3584 19.7264 12.8356 20.6013 11.5068 20.7635C11.3607 20.7813 11.2855 20.7985 11.1352 20.7979C10.9663 20.7971 10.8502 20.8318 10.7312 20.8256L9.99092 20.7522C8.91345 20.5606 8.32023 20.1701 7.56134 19.4995C7.40755 19.3637 7.02861 19.0447 6.9176 18.8966C6.54315 18.3979 6.6281 18.0003 6.98843 17.5208C7.32024 17.0796 8.29322 16.2446 8.74528 15.9436C9.33789 15.5492 9.96288 15.3339 10.6223 15.7136C10.7899 15.8099 10.9286 15.9598 11.0723 16.0755L11.4993 16.4603C11.6054 16.5991 11.7742 16.7626 11.9182 16.8534C12.9501 17.504 14.2786 16.0521 14.9262 15.3977C15.0081 15.3148 15.0311 15.2617 15.1135 15.1792L15.8316 14.3029C15.8865 14.2248 15.9503 14.1485 16.0056 14.0706C16.2847 13.6757 16.7592 12.8825 16.7592 12.389C16.7592 11.9807 16.727 11.7651 16.3755 11.4392L15.7532 10.9596C14.9433 10.2777 14.6621 9.85771 15.0817 8.73971C15.208 8.403 15.6813 7.67067 15.8954 7.34978C16.3267 6.70306 16.9491 5.81306 17.8346 6.32697C18.0174 6.4331 18.4892 6.87321 18.7436 7.07038C19.6679 7.78806 20.3257 9.21839 20.3257 10.4754V10.4754Z" stroke="#35393F" stroke-miterlimit="22.9256"/>
</svg>
