<svg width="21" height="21" viewBox="0 0 21 21" fill="none" xmlns="http://www.w3.org/2000/svg">
<circle cx="10.5" cy="10.5" r="10" fill="white" stroke="#003D9E"/>
<path d="M13.868 13.152H14.868V12.152H13.868V13.152ZM13.868 15V16H14.868V15H13.868ZM6.462 15H5.462V16H6.462V15ZM6.462 13.53L5.77538 12.803L5.462 13.099V13.53H6.462ZM10.242 9.96L10.9286 10.687L10.9321 10.6837L10.242 9.96ZM11.054 8.98L11.9423 9.43947L11.9484 9.42721L11.054 8.98ZM10.858 7.258L10.2233 8.03073L10.2382 8.043L10.2536 8.05469L10.858 7.258ZM8.534 7.188L8.9515 8.09668L8.96154 8.09207L8.97147 8.08723L8.534 7.188ZM7.666 7.916L7.12452 8.75671L7.92578 9.27278L8.47973 8.49724L7.666 7.916ZM6.014 6.852L5.18405 6.29416L4.61518 7.14053L5.47252 7.69272L6.014 6.852ZM7.596 5.522L8.02303 6.42631L8.03319 6.42137L7.596 5.522ZM11.81 5.396L11.4009 6.30851L11.4104 6.31273L11.4199 6.31675L11.81 5.396ZM13.084 6.404L12.2574 6.96679L12.2643 6.97694L12.2715 6.98691L13.084 6.404ZM13.21 9.428L14.1115 9.86073V9.86073L13.21 9.428ZM11.908 11.024L11.2279 10.2908L11.2215 10.2969L11.908 11.024ZM9.654 13.152L8.96751 12.4249L7.13811 14.152H9.654V13.152ZM12.868 13.152V15H14.868V13.152H12.868ZM13.868 14H6.462V16H13.868V14ZM7.462 15V13.53H5.462V15H7.462ZM7.14862 14.257L10.9286 10.687L9.55538 9.23299L5.77538 12.803L7.14862 14.257ZM10.9321 10.6837C11.3592 10.2765 11.7255 9.85848 11.9422 9.43942L10.1658 8.52058C10.1025 8.64285 9.92751 8.87815 9.55192 9.23626L10.9321 10.6837ZM11.9484 9.42721C12.147 9.03012 12.264 8.60254 12.264 8.154H10.264C10.264 8.2468 10.241 8.36988 10.1596 8.53279L11.9484 9.42721ZM12.264 8.154C12.264 7.50382 12.0228 6.88646 11.4624 6.46131L10.2536 8.05469C10.2597 8.05932 10.2596 8.06024 10.2569 8.05683C10.254 8.05328 10.2522 8.04985 10.2516 8.04873C10.2502 8.04557 10.264 8.07296 10.264 8.154H12.264ZM11.4927 6.48527C10.9804 6.06442 10.3261 5.936 9.696 5.936V7.936C10.0925 7.936 10.2129 8.02225 10.2233 8.03073L11.4927 6.48527ZM9.696 5.936C9.13313 5.936 8.59351 6.04699 8.09653 6.28876L8.97147 8.08723C9.16515 7.99301 9.4002 7.936 9.696 7.936V5.936ZM8.1165 6.27932C7.60381 6.51488 7.18097 6.87458 6.85227 7.33476L8.47973 8.49724C8.6177 8.30409 8.77352 8.17845 8.9515 8.09668L8.1165 6.27932ZM8.20748 7.07528L6.55548 6.01128L5.47252 7.69272L7.12452 8.75671L8.20748 7.07528ZM6.84395 7.40984C7.11767 7.0026 7.50004 6.6732 8.02301 6.42625L7.16899 4.61775C6.34796 5.00546 5.67567 5.56273 5.18405 6.29416L6.84395 7.40984ZM8.03319 6.42137C8.54857 6.17083 9.16504 6.032 9.906 6.032V4.032C8.91096 4.032 7.98743 4.21983 7.15881 4.62263L8.03319 6.42137ZM9.906 6.032C10.5243 6.032 11.014 6.13506 11.4009 6.30851L12.2191 4.48349C11.5233 4.1716 10.7437 4.032 9.906 4.032V6.032ZM11.4199 6.31675C11.8168 6.48496 12.0801 6.70645 12.2574 6.96679L13.9106 5.84121C13.4905 5.22422 12.9045 4.77371 12.2001 4.47525L11.4199 6.31675ZM12.2715 6.98691C12.4439 7.2273 12.546 7.52643 12.546 7.93H14.546C14.546 7.15757 14.3401 6.43937 13.8965 5.82109L12.2715 6.98691ZM12.546 7.93C12.546 8.31649 12.4658 8.66746 12.3085 8.99527L14.1115 9.86073C14.4022 9.25521 14.546 8.60751 14.546 7.93H12.546ZM12.3085 8.99527C12.1639 9.29653 11.835 9.72776 11.228 10.2908L12.588 11.7572C13.269 11.1256 13.8081 10.4928 14.1115 9.86073L12.3085 8.99527ZM11.2215 10.2969L8.96751 12.4249L10.3405 13.8791L12.5945 11.7511L11.2215 10.2969ZM9.654 14.152H13.868V12.152H9.654V14.152Z" fill="#003D9E"/>
</svg>
