<svg width="21" height="21" viewBox="0 0 21 21" fill="none" xmlns="http://www.w3.org/2000/svg">
<circle cx="10.5" cy="10.5" r="10" fill="white" stroke="#003D9E"/>
<path d="M11.124 9.19L10.3725 8.53031L9.18197 9.88657L10.9631 10.177L11.124 9.19ZM13.098 10.156L12.3574 10.828L12.3637 10.8349L13.098 10.156ZM13.336 13.586L14.1831 14.1175L14.1877 14.1101L13.336 13.586ZM11.964 14.734L11.5389 13.8289L11.5335 13.8314L11.964 14.734ZM7.68 14.902L7.40886 15.8645L7.41684 15.8668L7.42485 15.8689L7.68 14.902ZM5.986 14.118L5.09447 13.665L4.70638 14.4289L5.4017 14.9295L5.986 14.118ZM6.868 12.382L7.468 11.582L6.51567 10.8678L5.97647 11.929L6.868 12.382ZM8.156 13.04L7.84526 13.9905L7.85609 13.994L7.867 13.9973L8.156 13.04ZM11.012 12.942L11.5612 13.7777L11.5694 13.7723L11.5775 13.7667L11.012 12.942ZM8.632 10.8H7.632V11.8H8.632V10.8ZM8.632 9.302L7.88256 8.63992L7.632 8.92355V9.302H8.632ZM10.648 7.02L11.3974 7.68208L12.8658 6.02H10.648V7.02ZM6.476 7.02H5.476V8.02H6.476V7.02ZM6.476 5.2V4.2H5.476V5.2H6.476ZM13.336 5.2H14.336V4.2H13.336V5.2ZM13.336 6.67L14.0875 7.32969L14.336 7.04663V6.67H13.336ZM10.9631 10.177C11.6615 10.2908 12.0901 10.5334 12.3574 10.828L13.8386 9.48401C13.1912 8.77059 12.3038 8.36915 11.2849 8.20303L10.9631 10.177ZM12.3637 10.8349C12.6334 11.1266 12.784 11.4925 12.784 12.004H14.784C14.784 11.0409 14.4772 10.1747 13.8323 9.47714L12.3637 10.8349ZM12.784 12.004C12.784 12.3881 12.6861 12.734 12.4843 13.0619L14.1877 14.1101C14.5832 13.4673 14.784 12.7586 14.784 12.004H12.784ZM12.4889 13.0545C12.3119 13.3367 12.0182 13.6037 11.5389 13.8289L12.3891 15.6391C13.1418 15.2856 13.7628 14.7873 14.1831 14.1175L12.4889 13.0545ZM11.5335 13.8314C11.0971 14.0396 10.5072 14.168 9.724 14.168V16.168C10.7141 16.168 11.6176 16.0071 12.3945 15.6366L11.5335 13.8314ZM9.724 14.168C9.12 14.168 8.52441 14.0906 7.93515 13.9351L7.42485 15.8689C8.17959 16.0681 8.94667 16.168 9.724 16.168V14.168ZM7.95114 13.9395C7.3793 13.7784 6.92557 13.5623 6.5703 13.3065L5.4017 14.9295C5.97976 15.3457 6.65536 15.6523 7.40886 15.8645L7.95114 13.9395ZM6.87753 14.571L7.75953 12.835L5.97647 11.929L5.09447 13.665L6.87753 14.571ZM6.268 13.182C6.73672 13.5335 7.26568 13.801 7.84526 13.9905L8.46674 12.0895C8.07565 11.9616 7.74594 11.7905 7.468 11.582L6.268 13.182ZM7.867 13.9973C8.45476 14.1748 9.05611 14.264 9.668 14.264V12.264C9.25322 12.264 8.84657 12.2039 8.445 12.0827L7.867 13.9973ZM9.668 14.264C10.3481 14.264 11.0128 14.138 11.5612 13.7777L10.4628 12.1063C10.3578 12.1753 10.1266 12.264 9.668 12.264V14.264ZM11.5775 13.7667C12.1804 13.3533 12.502 12.7298 12.502 12.004H10.502C10.502 12.0364 10.4987 12.0559 10.4966 12.0654C10.4955 12.0702 10.4945 12.0731 10.494 12.0745C10.4935 12.0759 10.4932 12.0764 10.4932 12.0765C10.4931 12.0765 10.493 12.0768 10.4924 12.0776C10.4919 12.0784 10.4905 12.0802 10.4879 12.0831C10.4827 12.0887 10.4705 12.1008 10.4465 12.1173L11.5775 13.7667ZM12.502 12.004C12.502 11.3047 12.2106 10.671 11.5923 10.265C11.0474 9.9073 10.3569 9.8 9.668 9.8V11.8C10.2017 11.8 10.4283 11.8934 10.4947 11.937C10.5143 11.9498 10.5047 11.9477 10.4957 11.93C10.4887 11.916 10.502 11.9311 10.502 12.004H12.502ZM9.668 9.8H8.632V11.8H9.668V9.8ZM9.632 10.8V9.302H7.632V10.8H9.632ZM9.38144 9.96408L11.3974 7.68208L9.89857 6.35792L7.88256 8.63992L9.38144 9.96408ZM10.648 6.02H6.476V8.02H10.648V6.02ZM7.476 7.02V5.2H5.476V7.02H7.476ZM6.476 6.2H13.336V4.2H6.476V6.2ZM12.336 5.2V6.67H14.336V5.2H12.336ZM12.5845 6.01031L10.3725 8.53031L11.8755 9.84969L14.0875 7.32969L12.5845 6.01031Z" fill="#003D9E"/>
</svg>
