<svg width="21" height="21" viewBox="0 0 21 21" fill="none" xmlns="http://www.w3.org/2000/svg">
<circle cx="10.5" cy="10.5" r="10" fill="white" stroke="#003D9E"/>
<path d="M15.52 12.942V13.942H16.52V12.942H15.52ZM13.924 12.942V11.942H12.924V12.942H13.924ZM13.924 15V16H14.924V15H13.924ZM11.712 15H10.712V16H11.712V15ZM11.712 12.942H12.712V11.942H11.712V12.942ZM6.434 12.942H5.434V13.942H6.434V12.942ZM6.434 11.416L5.6314 10.8195L5.434 11.0851V11.416H6.434ZM11.054 5.2V4.2H10.5513L10.2514 4.60348L11.054 5.2ZM13.434 5.2L14.2429 5.78794L15.3971 4.2H13.434V5.2ZM9.15 11.094L8.3411 10.5061L7.18692 12.094H9.15V11.094ZM11.782 11.094V12.094H12.782V11.094H11.782ZM11.782 9.26V8.26H10.782V9.26H11.782ZM13.924 9.26H14.924V8.26H13.924V9.26ZM13.924 11.094H12.924V12.094H13.924V11.094ZM15.52 11.094H16.52V10.094H15.52V11.094ZM15.52 11.942H13.924V13.942H15.52V11.942ZM12.924 12.942V15H14.924V12.942H12.924ZM13.924 14H11.712V16H13.924V14ZM12.712 15V12.942H10.712V15H12.712ZM11.712 11.942H6.434V13.942H11.712V11.942ZM7.434 12.942V11.416H5.434V12.942H7.434ZM7.2366 12.0125L11.8566 5.79652L10.2514 4.60348L5.6314 10.8195L7.2366 12.0125ZM11.054 6.2H13.434V4.2H11.054V6.2ZM12.6251 4.61206L8.3411 10.5061L9.9589 11.6819L14.2429 5.78794L12.6251 4.61206ZM9.15 12.094H11.782V10.094H9.15V12.094ZM12.782 11.094V9.26H10.782V11.094H12.782ZM11.782 10.26H13.924V8.26H11.782V10.26ZM12.924 9.26V11.094H14.924V9.26H12.924ZM13.924 12.094H15.52V10.094H13.924V12.094ZM14.52 11.094V12.942H16.52V11.094H14.52Z" fill="#003D9E"/>
</svg>
