<svg width="21" height="21" viewBox="0 0 21 21" fill="none" xmlns="http://www.w3.org/2000/svg">
<circle cx="10.5" cy="10.5" r="10" fill="white" stroke="#003D9E"/>
<path d="M12.958 9.708L12.3135 10.4726L12.3189 10.4771L12.958 9.708ZM13.504 13.558L14.3557 14.0821L14.3601 14.0749L13.504 13.558ZM12.132 14.734L12.5625 15.6366L12.5683 15.6338L12.132 14.734ZM7.834 14.902L7.56286 15.8645L7.57084 15.8668L7.57885 15.8689L7.834 14.902ZM6.14 14.118L5.25138 13.6594L4.85587 14.4257L5.5557 14.9295L6.14 14.118ZM7.036 12.382L7.636 11.582L6.68982 10.8724L6.14738 11.9234L7.036 12.382ZM8.324 13.04L8.01326 13.9905L8.02156 13.9932L8.02991 13.9958L8.324 13.04ZM11.166 12.928L11.7315 13.7527L11.166 12.928ZM11.138 11.038L10.5996 11.8808L10.6101 11.8873L11.138 11.038ZM6.868 10.716L5.87215 10.625L5.77246 11.716H6.868V10.716ZM7.372 5.2V4.2H6.45921L6.37615 5.10901L7.372 5.2ZM13.35 5.2H14.35V4.2H13.35V5.2ZM13.35 7.02V8.02H14.35V7.02H13.35ZM9.262 7.02V6.02H8.34129L8.2654 6.93757L9.262 7.02ZM9.108 8.882L8.1114 8.79957L8.02188 9.882H9.108V8.882ZM9.906 9.882C11.1875 9.882 11.9227 10.1432 12.3135 10.4726L13.6025 8.94337C12.6867 8.17148 11.3872 7.882 9.906 7.882V9.882ZM12.3189 10.4771C12.7347 10.8226 12.952 11.2687 12.952 11.92H14.952C14.952 10.7233 14.5067 9.69471 13.5971 8.93889L12.3189 10.4771ZM12.952 11.92C12.952 12.3416 12.8492 12.7079 12.6479 13.0411L14.3601 14.0749C14.7562 13.4188 14.952 12.6931 14.952 11.92H12.952ZM12.6523 13.0339C12.472 13.3269 12.1752 13.6017 11.6957 13.8342L12.5683 15.6338C13.3208 15.2689 13.9386 14.7598 14.3557 14.0821L12.6523 13.0339ZM11.7015 13.8314C11.2663 14.039 10.6723 14.168 9.878 14.168V16.168C10.8757 16.168 11.7844 16.0077 12.5625 15.6366L11.7015 13.8314ZM9.878 14.168C9.274 14.168 8.67841 14.0906 8.08915 13.9351L7.57885 15.8689C8.33359 16.0681 9.10067 16.168 9.878 16.168V14.168ZM8.10514 13.9395C7.5333 13.7784 7.07957 13.5623 6.7243 13.3065L5.5557 14.9295C6.13376 15.3457 6.80936 15.6523 7.56286 15.8645L8.10514 13.9395ZM7.02862 14.5766L7.92462 12.8406L6.14738 11.9234L5.25138 13.6594L7.02862 14.5766ZM6.436 13.182C6.90472 13.5335 7.43368 13.801 8.01326 13.9905L8.63474 12.0895C8.24365 11.9616 7.91394 11.7905 7.636 11.582L6.436 13.182ZM8.02991 13.9958C8.61157 14.1748 9.21009 14.264 9.822 14.264V12.264C9.40725 12.264 9.00709 12.2039 8.61809 12.0842L8.02991 13.9958ZM9.822 14.264C10.5087 14.264 11.1802 14.1308 11.7315 13.7527L10.6005 12.1033C10.4985 12.1732 10.2739 12.264 9.822 12.264V14.264ZM11.7315 13.7527C12.3344 13.3393 12.656 12.7158 12.656 11.99H10.656C10.656 12.0224 10.6527 12.0419 10.6506 12.0514C10.6495 12.0562 10.6485 12.0591 10.648 12.0605C10.6475 12.0619 10.6472 12.0624 10.6472 12.0625C10.6471 12.0625 10.647 12.0628 10.6464 12.0636C10.6459 12.0644 10.6445 12.0662 10.6419 12.0691C10.6367 12.0747 10.6245 12.0868 10.6005 12.1033L11.7315 13.7527ZM12.656 11.99C12.656 11.2382 12.3164 10.5931 11.6659 10.1887L10.6101 11.8873C10.6341 11.9022 10.645 11.9126 10.6482 11.9159C10.6509 11.9187 10.6498 11.9181 10.6481 11.9149C10.6465 11.9119 10.6478 11.9131 10.65 11.9223C10.6523 11.9321 10.656 11.9535 10.656 11.99H12.656ZM11.6764 10.1953C11.08 9.81425 10.2354 9.716 9.374 9.716V11.716C10.1926 11.716 10.524 11.8324 10.5996 11.8807L11.6764 10.1953ZM9.374 9.716H6.868V11.716H9.374V9.716ZM7.86385 10.807L8.36785 5.29099L6.37615 5.10901L5.87215 10.625L7.86385 10.807ZM7.372 6.2H13.35V4.2H7.372V6.2ZM12.35 5.2V7.02H14.35V5.2H12.35ZM13.35 6.02H9.262V8.02H13.35V6.02ZM8.2654 6.93757L8.1114 8.79957L10.1046 8.96443L10.2586 7.10242L8.2654 6.93757ZM9.108 9.882H9.906V7.882H9.108V9.882Z" fill="#003D9E"/>
</svg>
