<svg width="21" height="21" viewBox="0 0 21 21" fill="none" xmlns="http://www.w3.org/2000/svg">
<circle cx="10.5" cy="10.5" r="10" fill="white" stroke="#003D9E"/>
<path d="M12.972 9.232L13.4127 8.33433L12.972 9.232ZM14.19 10.31L13.3477 10.8491L13.3527 10.8568L14.19 10.31ZM14.148 13.628L13.3135 13.0769L13.3135 13.0769L14.148 13.628ZM12.804 14.776L13.2269 15.6822L13.2334 15.6791L12.804 14.776ZM7.708 13.908L6.97288 14.5859H6.97288L7.708 13.908ZM7.176 7.454L6.29221 6.98611H6.29221L7.176 7.454ZM8.926 5.648L8.44866 4.76926L8.44408 4.77178L8.926 5.648ZM13.042 5.214L12.795 6.18301L12.806 6.18583L12.8171 6.18839L13.042 5.214ZM14.274 5.704L15.1669 6.15421L15.5736 5.34763L14.8124 4.8613L14.274 5.704ZM13.434 7.37L12.8756 8.19959L13.8164 8.83279L14.3269 7.82021L13.434 7.37ZM9.626 7.608L10.3331 8.31511V8.31511L9.626 7.608ZM8.842 9.722L7.84282 9.68163L7.7395 12.2387L9.54911 10.4291L8.842 9.722ZM11.978 13.082L11.331 12.3195L11.3252 12.3244L11.3195 12.3294L11.978 13.082ZM11.978 10.954L11.3065 11.695L11.3186 11.7059L11.331 11.7165L11.978 10.954ZM9.556 10.968L10.2049 11.7288L10.2113 11.7234L10.2176 11.7178L9.556 10.968ZM9.542 13.068L10.2021 12.3168L10.2021 12.3168L9.542 13.068ZM11.264 9.854C11.7511 9.854 12.1676 9.95111 12.5313 10.1297L13.4127 8.33433C12.7497 8.00889 12.0276 7.854 11.264 7.854V9.854ZM12.5313 10.1297C12.8861 10.3038 13.1509 10.5415 13.3477 10.8491L15.0323 9.77095C14.6318 9.14516 14.0846 8.66419 13.4127 8.33433L12.5313 10.1297ZM13.3527 10.8568C13.5337 11.1338 13.638 11.4713 13.638 11.906H15.638C15.638 11.1274 15.4437 10.4008 15.0273 9.76321L13.3527 10.8568ZM13.638 11.906C13.638 12.3842 13.5213 12.7623 13.3135 13.0769L14.9825 14.1791C15.428 13.5044 15.638 12.7345 15.638 11.906H13.638ZM13.3135 13.0769C13.0937 13.4098 12.7902 13.6753 12.3746 13.8729L13.2334 15.6791C13.9564 15.3354 14.5489 14.8355 14.9825 14.1791L13.3135 13.0769ZM12.3811 13.8698C11.9684 14.0624 11.4898 14.168 10.928 14.168V16.168C11.7475 16.168 12.5196 16.0122 13.2269 15.6822L12.3811 13.8698ZM10.928 14.168C9.7745 14.168 8.99086 13.824 8.44312 13.2301L6.97288 14.5859C7.97447 15.672 9.3375 16.168 10.928 16.168V14.168ZM8.44312 13.2301C7.89257 12.6331 7.546 11.71 7.546 10.31H5.546C5.546 12.0273 5.9741 13.5029 6.97288 14.5859L8.44312 13.2301ZM7.546 10.31C7.546 9.32434 7.73213 8.54079 8.05979 7.92189L6.29221 6.98611C5.77987 7.95388 5.546 9.07433 5.546 10.31H7.546ZM8.05979 7.92189C8.39365 7.29126 8.84152 6.83573 9.40792 6.52422L8.44408 4.77178C7.51714 5.2816 6.79835 6.03007 6.29221 6.98611L8.05979 7.92189ZM9.40333 6.52672C9.99215 6.20687 10.6962 6.032 11.544 6.032V4.032C10.4132 4.032 9.37185 4.2678 8.44867 4.76928L9.40333 6.52672ZM11.544 6.032C11.9887 6.032 12.4047 6.08353 12.795 6.18301L13.289 4.24498C12.7273 4.1018 12.1447 4.032 11.544 4.032V6.032ZM12.8171 6.18839C13.2178 6.28085 13.5164 6.40666 13.7356 6.5467L14.8124 4.8613C14.3596 4.57201 13.8369 4.37115 13.2669 4.23961L12.8171 6.18839ZM13.3811 5.25379L12.5411 6.91979L14.3269 7.82021L15.1669 6.15421L13.3811 5.25379ZM13.9924 6.54041C13.3037 6.0769 12.4845 5.88 11.6 5.88V7.88C12.1902 7.88 12.5936 8.00977 12.8756 8.19959L13.9924 6.54041ZM11.6 5.88C10.5636 5.88 9.63003 6.18976 8.91889 6.90089L10.3331 8.31511C10.5926 8.05558 10.975 7.88 11.6 7.88V5.88ZM8.91889 6.90089C8.20179 7.618 7.88671 8.59525 7.84282 9.68163L9.84118 9.76237C9.87196 9.00075 10.0795 8.56867 10.3331 8.31511L8.91889 6.90089ZM9.54911 10.4291C9.89359 10.0846 10.419 9.854 11.264 9.854V7.854C10.037 7.854 8.94774 8.20204 8.13489 9.01489L9.54911 10.4291ZM10.802 14.474C11.4732 14.474 12.1172 14.289 12.6365 13.8346L11.3195 12.3294C11.2415 12.3977 11.1014 12.474 10.802 12.474V14.474ZM12.625 13.8445C13.183 13.371 13.44 12.7236 13.44 12.018H11.44C11.44 12.2084 11.389 12.2703 11.331 12.3195L12.625 13.8445ZM13.44 12.018C13.44 11.3124 13.183 10.665 12.625 10.1915L11.331 11.7165C11.389 11.7657 11.44 11.8276 11.44 12.018H13.44ZM12.6495 10.213C12.124 9.73679 11.4615 9.548 10.774 9.548V11.548C11.0945 11.548 11.2346 11.6299 11.3065 11.695L12.6495 10.213ZM10.774 9.548C10.0793 9.548 9.42464 9.75028 8.89438 10.2182L10.2176 11.7178C10.322 11.6257 10.4794 11.548 10.774 11.548V9.548ZM8.90705 10.2072C8.35956 10.6741 8.08 11.3058 8.08 12.018H10.08C10.08 11.8716 10.1178 11.8032 10.2049 11.7288L8.90705 10.2072ZM8.08 12.018C8.08 12.7195 8.34653 13.3487 8.88189 13.8192L10.2021 12.3168C10.1215 12.246 10.08 12.1751 10.08 12.018H8.08ZM8.88189 13.8192C9.42119 14.2931 10.101 14.474 10.802 14.474V12.474C10.439 12.474 10.2788 12.3842 10.2021 12.3168L8.88189 13.8192Z" fill="#003D9E"/>
</svg>
