<svg width="19" height="23" viewBox="0 0 19 23" fill="none" xmlns="http://www.w3.org/2000/svg">
<path fill-rule="evenodd" clip-rule="evenodd" d="M9.50696 21.9825C9.46023 21.9513 9.3673 21.8871 9.19009 21.7659C0.0807836 15.5368 1.57565 8.42071 1.57565 8.42071L1.57633 8.42032C1.84828 4.27679 5.29466 1 9.50696 1C13.7193 1 17.1656 4.27679 17.4376 8.42032L17.4383 8.42071C17.4383 8.42071 18.9331 15.5368 9.82384 21.7659C9.64663 21.8871 9.5537 21.9513 9.50696 21.9825ZM9.50696 6.11732C11.0706 6.11732 12.3382 7.38492 12.3382 8.94857C12.3382 10.5122 11.0706 11.7798 9.50696 11.7798C7.94332 11.7798 6.67576 10.5122 6.67576 8.94857C6.67576 7.38492 7.94332 6.11732 9.50696 6.11732Z" stroke="#003D9E" stroke-width="1.2" stroke-miterlimit="22.9256"/>
</svg>
