<svg width="38" height="41" viewBox="0 0 38 41" fill="none" xmlns="http://www.w3.org/2000/svg">
<path d="M31.5059 1V35.9423" stroke="#003D9E" stroke-width="1.2" stroke-miterlimit="22.9256"/>
<path d="M31.5053 1H23.8789V6.71976H31.5053V1Z" fill="#003D9E"/>
<path d="M23.8783 6.71997H16.252V12.4397H23.8783V6.71997Z" fill="#003D9E"/>
<path d="M31.5053 12.4392H23.8789V18.159H31.5053V12.4392Z" fill="#003D9E"/>
<path d="M23.8783 18.1597H16.252V23.8794H23.8783V18.1597Z" fill="#003D9E"/>
<path d="M16.2513 1H8.625V6.71976H16.2513V1Z" fill="#003D9E"/>
<path d="M8.62635 6.71997H1V12.4397H8.62635V6.71997Z" fill="#003D9E"/>
<path d="M16.2513 12.4392H8.625V18.159H16.2513V12.4392Z" fill="#003D9E"/>
<path d="M8.62635 18.1597H1V23.8794H8.62635V18.1597Z" fill="#003D9E"/>
<path d="M31.5058 1H1V23.8792H31.5058V1Z" stroke="#003D9E" stroke-width="1.2" stroke-miterlimit="22.9256"/>
<path fill-rule="evenodd" clip-rule="evenodd" d="M31.8858 36.0213L35.9567 37.784C36.4438 37.9942 36.6683 38.5601 36.4581 39.0472C36.3015 39.4099 35.9474 39.6271 35.5758 39.6273V39.6315H27.434C26.901 39.6315 26.4688 39.1993 26.4688 38.6663C26.4688 38.2367 26.7494 37.8728 27.1373 37.7475L31.124 36.0213C31.3769 35.912 31.651 35.9203 31.8858 36.0213V36.0213Z" stroke="#003D9E" stroke-width="1.2" stroke-miterlimit="22.9256"/>
</svg>
