<svg width="14" height="17" viewBox="0 0 14 17" fill="none" xmlns="http://www.w3.org/2000/svg">
<path fill-rule="evenodd" clip-rule="evenodd" d="M6.81906 16.0457C6.78555 16.0233 6.71891 15.9773 6.59184 15.8904C0.0599506 11.4237 1.13186 6.32107 1.13186 6.32107L1.13234 6.32079C1.32735 3.34965 3.7986 1 6.81906 1C9.83953 1 12.3108 3.34965 12.5058 6.32079L12.5063 6.32107C12.5063 6.32107 13.5782 11.4237 7.04628 15.8904C6.91921 15.9773 6.85257 16.0233 6.81906 16.0457ZM6.81906 4.66941C7.94029 4.66941 8.8492 5.57836 8.8492 6.69958C8.8492 7.82081 7.94029 8.72971 6.81906 8.72971C5.69784 8.72971 4.78893 7.82081 4.78893 6.69958C4.78893 5.57836 5.69784 4.66941 6.81906 4.66941Z" stroke="black" stroke-miterlimit="22.9256"/>
</svg>
