<svg width="20" height="20" viewBox="0 0 20 20" fill="none" xmlns="http://www.w3.org/2000/svg">
<path fill-rule="evenodd" clip-rule="evenodd" d="M9.99985 1C14.9703 1 18.9997 5.02938 18.9997 9.99985C18.9997 14.9703 14.9703 18.9997 9.99985 18.9997C5.02938 18.9997 1 14.9703 1 9.99985C1 5.02938 5.02938 1 9.99985 1ZM14.9142 7.8222C14.9142 9.26183 14.2824 10.4263 13.4617 11.5677C13.1466 12.0059 12.6215 12.6303 12.2474 13.0044L11.7988 13.4534C11.7373 13.5156 11.7013 13.5335 11.6418 13.5887L11.319 13.8713C10.6179 14.4828 9.5215 15.1127 8.56477 15.2295C8.45961 15.2423 8.40545 15.2546 8.29721 15.2543C8.17559 15.2537 8.09199 15.2787 8.00635 15.2742L7.47335 15.2214C6.69759 15.0834 6.27048 14.8023 5.72409 14.3194C5.61336 14.2216 5.34053 13.9919 5.2606 13.8853C4.991 13.5262 5.05216 13.24 5.3116 12.8948C5.5505 12.5771 6.25103 11.9759 6.57651 11.7592C7.00318 11.4752 7.45316 11.3202 7.92794 11.5936C8.04859 11.6629 8.14851 11.7709 8.25195 11.8542L8.55939 12.1313C8.63575 12.2312 8.75728 12.3489 8.86096 12.4143C9.60392 12.8827 10.5604 11.8373 11.0267 11.3662C11.0856 11.3065 11.1022 11.2682 11.1615 11.2089L11.6786 10.5779C11.7181 10.5217 11.764 10.4668 11.8038 10.4107C12.0048 10.1263 12.3464 9.55524 12.3464 9.19994C12.3464 8.90599 12.3233 8.75073 12.0702 8.51608L11.6222 8.17081C11.039 7.6798 10.8366 7.37744 11.1387 6.5725C11.2296 6.33007 11.5704 5.8028 11.7245 5.57177C12.035 5.10613 12.4831 4.46534 13.1207 4.83535C13.2523 4.91176 13.592 5.22864 13.7752 5.3706C14.4407 5.88732 14.9142 6.91714 14.9142 7.8222V7.8222Z" stroke="#003D9E" stroke-width="1.2" stroke-miterlimit="22.9256"/>
</svg>
