<svg width="21" height="21" viewBox="0 0 21 21" fill="none" xmlns="http://www.w3.org/2000/svg">
<circle cx="10.5" cy="10.5" r="10" fill="white" stroke="#003D9E"/>
<path d="M13.96 5V15.9821" stroke="#003D9E" stroke-miterlimit="22.9256"/>
<path d="M13.9604 5H11.5635V6.79767H13.9604V5Z" fill="#003D9E"/>
<path d="M11.5639 6.79785H9.16699V8.59553H11.5639V6.79785Z" fill="#003D9E"/>
<path d="M13.9604 8.59473H11.5635V10.3924H13.9604V8.59473Z" fill="#003D9E"/>
<path d="M11.5639 10.3926H9.16699V12.1903H11.5639V10.3926Z" fill="#003D9E"/>
<path d="M9.16546 5H6.76855V6.79767H9.16546V5Z" fill="#003D9E"/>
<path d="M6.76897 6.79785H4.37207V8.59553H6.76897V6.79785Z" fill="#003D9E"/>
<path d="M9.16546 8.59473H6.76855V10.3924H9.16546V8.59473Z" fill="#003D9E"/>
<path d="M6.76897 10.3926H4.37207V12.1903H6.76897V10.3926Z" fill="#003D9E"/>
<path d="M13.9598 5H4.37207V12.1908H13.9598V5Z" stroke="#003D9E" stroke-miterlimit="22.9256"/>
<path fill-rule="evenodd" clip-rule="evenodd" d="M14.0795 16.0062L15.3589 16.5603C15.512 16.6263 15.5826 16.8042 15.5165 16.9573C15.4673 17.0713 15.356 17.1395 15.2392 17.1396V17.1409H12.6803C12.5128 17.1409 12.377 17.0051 12.377 16.8375C12.377 16.7025 12.4652 16.5882 12.5871 16.5488L13.8401 16.0062C13.9195 15.9719 14.0057 15.9745 14.0795 16.0062V16.0062Z" stroke="#003D9E" stroke-miterlimit="22.9256"/>
</svg>
