<svg width="72" height="74" viewBox="0 0 72 74" fill="none" xmlns="http://www.w3.org/2000/svg">
<path fill-rule="evenodd" clip-rule="evenodd" d="M62.3781 64.0239C63.233 64.0523 65.1022 63.2012 65.6634 63.3519C65.9887 63.4393 66.6705 64.25 66.9337 64.5235C68.2111 65.8484 68.1985 64.8373 67.1924 68.592C67.0658 69.0631 66.5772 69.0544 65.6819 69.2761C65.3757 69.3519 64.19 69.7002 64.0371 69.6926C63.6261 69.6707 63.7205 69.615 63.4159 69.2902C62.9207 68.764 62.0113 67.6924 61.4719 67.4042L62.3781 64.0239V64.0239ZM30.3485 26.4589C31.0074 26.811 32.7035 28.708 33.334 29.3615C34.3019 30.3648 35.403 31.4184 34.9242 33.2057C34.3232 35.4477 32.5381 36.3616 30.2732 35.7545C29.3064 35.4958 28.8451 34.8745 28.2997 34.3089L25.9376 31.8464C25.627 31.5106 25.3754 31.0663 25.0385 31.61C24.8245 31.9566 24.7596 34.0491 24.7781 34.4372C24.9681 38.3868 28.1807 41.7185 32.4835 41.9396C34.2468 42.0302 34.1376 41.4717 34.791 41.993C36.8731 44.134 41.07 48.3468 41.07 48.3468C38.8602 50.2809 32.0124 51.0572 28.8173 50.2012C25.2454 49.2442 23.5597 48.6738 20.6238 46.2238C18.7689 44.6761 17.135 42.4057 16.0759 40.2773C14.5059 37.1203 13.757 32.3644 14.7057 28.8226C15.7997 24.7409 16.7834 22.4225 19.8012 19.5014C28.3456 11.2305 42.2622 13.2459 48.0559 23.3101C50.7504 27.9912 51.1828 32.4054 49.7209 37.86C49.3033 39.418 48.1874 41.6955 47.4183 42.5913L42.3731 37.4762C41.7545 36.8326 41.2692 36.3686 40.6213 35.7665C41.736 31.6057 39.1763 27.2712 35.4046 26.2607C34.2555 25.9529 31.0276 25.2798 30.3485 26.4589V26.4589ZM39.2096 4.33463C36.2355 3.53816 36.1089 -0.170141 33.1446 1.37094C32.2319 1.84587 31.086 4.40126 28.1862 3.6239C27.1266 3.34003 24.1001 0.198348 22.4979 3.67028C20.0135 9.05504 17.813 4.86472 14.9487 6.38341C12.6007 7.62806 14.7483 11.1251 11.3506 12.4057C9.79044 12.9937 7.42724 12.2038 6.82238 14.4616C6.46482 15.7958 7.53478 16.9548 7.16138 18.3479C6.20333 21.9241 3.12063 20.5512 2.47592 22.958C1.86451 25.2399 4.59893 25.9802 3.83194 28.8423C3.30623 30.8043 1.62595 30.6361 1.05767 32.7564C0.824021 33.6298 1.35409 34.4962 1.88962 34.9979C2.58946 35.654 3.15283 35.9221 3.65233 36.7016C5.05475 38.8912 3.26038 40.6338 2.83894 42.2054C2.09597 44.9791 6.24755 44.7357 7.40922 46.9138C8.10416 48.2169 7.78098 48.7709 7.55443 50.5036C7.09806 53.9919 11.1503 53.2304 11.7459 53.3903C15.8887 54.5002 13.573 58.8827 16.451 59.654C17.1006 59.8282 18.1411 59.4744 18.6864 59.2834C23.0618 57.7494 23.3768 62.7176 25.163 63.1958C28.136 63.9928 28.0666 60.6961 31.455 61.604C33.6234 62.1853 34.5017 65.1223 36.8202 63.5905C38.0282 62.7924 38.87 59.6229 42.105 60.4898C43.3104 60.8124 44.9312 62.2945 46.4635 60.7327C47.7911 59.3783 46.7441 58.3122 48.8829 56.4403L52.6616 60.2458C53.9478 61.5832 55.2268 62.8612 56.4851 64.161C59.0656 66.8271 58.024 65.5039 58.3805 67.5565C59.6219 74.7007 69.3542 74.6876 71.0787 68.253C72.0313 64.6981 70.2167 61.2944 66.3217 60.2507C63.6184 59.5263 65.2157 60.7147 62.9863 58.5021C62.4202 57.941 55.449 50.609 55.449 50.609C56.2182 47.7375 60.1749 49.0668 60.8097 46.697C61.3709 44.6035 59.3915 44.2645 60.1721 41.3505C60.8381 38.8656 62.9863 39.864 63.7631 36.9648C64.2866 35.0104 60.7197 34.1577 61.6018 30.8649C61.9332 29.6295 65.029 27.4568 62.834 25.3917C62.1374 24.7361 59.2616 23.9679 59.57 21.0059C59.6836 19.9146 61.4266 16.9095 58.8636 15.982C56.9011 15.2718 54.1814 15.6048 54.2535 11.2965C54.3255 6.99154 50.6899 8.79137 49.3267 8.42617L48.5221 8.21053C45.6435 7.43917 46.6819 3.92192 44.4813 3.33181C42.295 2.74606 41.4794 4.94277 39.2096 4.33463V4.33463Z" stroke="#003D9E" stroke-width="1.2" stroke-miterlimit="22.9256"/>
<path d="M41.0693 48.3477L48.8823 56.4412" stroke="#003D9E" stroke-width="1.2" stroke-miterlimit="22.9256"/>
<path d="M47.4194 42.5918L55.4502 50.6094" stroke="#003D9E" stroke-width="1.2" stroke-miterlimit="22.9256"/>
</svg>
