<svg width="69" height="80" viewBox="0 0 69 80" fill="none" xmlns="http://www.w3.org/2000/svg">
<path fill-rule="evenodd" clip-rule="evenodd" d="M14.7956 27.5894C14.7956 25.8535 15.2923 23.6642 15.851 22.3553C18.369 16.4554 24.6562 13.4969 31.2691 15.4053C36.0663 16.7888 39.3352 21.4341 39.7248 26.4288H52.8058C54.2443 24.4192 54.5181 22.6934 50.3032 20.1015C49.1674 19.402 49.1236 19.486 48.167 18.5211C45.2558 15.5856 45.3906 14.2063 45.0938 9.8714C44.6214 2.98297 38.4407 6.43222 35.6672 6.43222C28.9905 6.43222 28.4602 1 23.9449 1C21.1567 1 20.4076 4.82644 18.4507 6.6563C13.5541 11.233 9.58988 8.4276 7.01034 10.3698C6.37359 10.8493 5.64636 11.975 5.64636 13.0085C5.64636 17.37 8.86324 20.5981 2.57196 27.0875C-0.477608 30.2334 1.32034 32.6024 4.49051 34.4636C13.2502 39.6062 6.5048 49.0327 13.3654 49.0327C16.0396 49.0327 20.1345 46.4089 25.2622 50.2885C26.4778 51.2079 27.5662 52.9443 29.2489 53.4593V39.6446C22.1789 40.6231 14.7956 35.1483 14.7956 27.5894V27.5894Z" stroke="#5B9DFF" stroke-width="1.2" stroke-miterlimit="22.9256"/>
<path d="M35.6265 69.1289H42.1258" stroke="#5B9DFF" stroke-width="1.2" stroke-miterlimit="22.9256"/>
<path d="M35.6265 58.1562H48.6252" stroke="#5B9DFF" stroke-width="1.2" stroke-miterlimit="22.9256"/>
<path d="M35.6265 47.1875H61.624" stroke="#5B9DFF" stroke-width="1.2" stroke-miterlimit="22.9256"/>
<path d="M35.6265 36.2188H61.624" stroke="#5B9DFF" stroke-width="1.2" stroke-miterlimit="22.9256"/>
<path d="M48.877 64.3752L54.6468 71.3505L63.1723 58.7773" stroke="#5B9DFF" stroke-width="1.2" stroke-miterlimit="22.9256" stroke-linecap="round" stroke-linejoin="round"/>
<path d="M63.2354 26.4297H34.0185C31.3858 26.4297 29.2515 28.564 29.2515 31.1968V74.1503C29.2515 76.7831 31.3858 78.9174 34.0185 78.9174H63.2354C65.8682 78.9174 68.0025 76.7831 68.0025 74.1503V31.1968C68.0025 28.564 65.8682 26.4297 63.2354 26.4297Z" stroke="#5B9DFF" stroke-width="1.2" stroke-miterlimit="22.9256"/>
</svg>
