<svg width="63" height="72" viewBox="0 0 63 72" fill="none" xmlns="http://www.w3.org/2000/svg">
<path fill-rule="evenodd" clip-rule="evenodd" d="M2.90074 28.3817C2.90074 32.8023 -0.50631 34.1993 1.80374 37.4069C2.54594 38.437 3.9292 38.8979 4.90793 39.7916C5.78608 40.5934 6.59072 41.7269 7.0356 43.1644C7.49209 44.6383 7.21134 46.5929 7.8198 47.8773C8.3531 49.0035 9.59545 49.8513 11.1976 49.9668C14.4349 50.2006 16.6002 50.6217 18.5648 53.8033C22.2648 59.7956 24.9191 53.2318 30.4351 54.656C31.9852 55.0561 32.8529 56.0061 34.3411 56.2609C39.1646 57.0876 38.3743 50.6936 44.3417 50.0608C46.3208 49.8513 47.6759 50.0276 48.8447 48.8742C50.711 47.0328 49.2078 43.5755 51.6156 40.6492C53.4554 38.4132 56.8 38.0689 56.2595 34.5127C56.028 32.9913 55.1017 32.1192 54.664 30.5989C54.1965 28.9769 54.4612 27.1338 54.9934 25.7998C55.535 24.4408 56.5292 23.7395 56.254 21.7959C55.7682 18.3628 53.0465 19.3902 51.0205 15.8505C49.0901 12.4772 50.9895 9.57027 47.9699 7.90461C46.1086 6.8789 42.7524 8.2296 39.8455 5.02482C39.0657 4.16546 38.3345 2.57933 37.4746 1.90676C34.3168 -0.563552 32.8004 2.93028 28.3533 2.93028C24.4262 2.93028 22.1012 -1.9617 18.4129 3.83C15.113 9.01158 10.945 6.14059 8.5283 8.55785C6.82451 10.2616 7.76232 11.9212 7.01515 14.2666C6.40116 16.1954 5.25666 17.4935 3.8137 18.4468C2.40115 19.3808 0.717804 20.3081 1.06873 22.8447C1.3235 24.6862 2.90074 25.8705 2.90074 28.3817V28.3817Z" stroke="#5B9DFF" stroke-width="1.2" stroke-miterlimit="22.9256"/>
<path d="M27.0924 54.6769L18.0655 70.3117L14.5861 60.226L4.2876 62.357L11.4322 49.9844" stroke="#5B9DFF" stroke-width="1.2" stroke-miterlimit="22.9256"/>
<path d="M38.1938 54.6765L47.2207 70.3113L50.7001 60.2256L60.9987 62.3566L50.1669 43.5977" stroke="#5B9DFF" stroke-width="1.2" stroke-miterlimit="22.9256"/>
<path d="M17.5942 27.1067L26.8322 38.2751L40.4825 18.1445" stroke="#5B9DFF" stroke-width="1.2" stroke-miterlimit="22.9256" stroke-linecap="round" stroke-linejoin="round"/>
</svg>
