<svg width="70" height="80" viewBox="0 0 70 80" fill="none" xmlns="http://www.w3.org/2000/svg">
<path d="M40.6207 79.0159C56.2941 79.0159 68.9998 66.3101 68.9998 50.6368C68.9998 34.9635 56.2941 22.2578 40.6207 22.2578C24.9474 22.2578 12.2417 34.9635 12.2417 50.6368C12.2417 66.3101 24.9474 79.0159 40.6207 79.0159Z" stroke="#003D9E" stroke-width="1.20189" stroke-miterlimit="22.9256"/>
<path d="M9.72702 18.702V18.1011H9.12608V18.702H9.72702ZM9.72702 20.982H9.12608V21.5829H9.72702V20.982ZM16.111 20.982H16.712V20.3811H16.111V20.982ZM16.111 24.934V25.5349H16.712V24.934H16.111ZM9.72702 24.934V24.3331H9.12608V24.934H9.72702ZM9.72702 29V29.6009H10.328V29H9.72702ZM4.33102 29H3.73008V29.6009H4.33102V29ZM4.33102 24.934H4.93197V24.3331H4.33102V24.934ZM1.06302 24.934H0.462079V25.5349H1.06302V24.934ZM1.06302 20.982V20.3811H0.462079V20.982H1.06302ZM4.33102 20.982V21.5829H4.93197V20.982H4.33102ZM4.33102 18.702H4.93197V18.1011H4.33102V18.702ZM1.06302 18.702H0.462079V19.3029H1.06302V18.702ZM1.06302 14.75V14.1491H0.462079V14.75H1.06302ZM4.33102 14.75V15.3509H4.93197V14.75H4.33102ZM4.33102 2.096V1.49505H3.73008V2.096H4.33102ZM19.265 4.262L19.6612 3.81017L19.265 4.262ZM19.189 16.688L19.5619 17.1593L19.5661 17.1559L19.189 16.688ZM9.72702 7.074V6.47305H9.12608V7.074H9.72702ZM9.72702 14.75H9.12608V15.3509H9.72702V14.75ZM14.857 8.024L14.4723 8.48572L14.4798 8.49178L14.857 8.024ZM11.893 18.1011H9.72702V19.3029H11.893V18.1011ZM9.12608 18.702V20.982H10.328V18.702H9.12608ZM9.72702 21.5829H16.111V20.3811H9.72702V21.5829ZM15.5101 20.982V24.934H16.712V20.982H15.5101ZM16.111 24.3331H9.72702V25.5349H16.111V24.3331ZM9.12608 24.934V29H10.328V24.934H9.12608ZM9.72702 28.3991H4.33102V29.6009H9.72702V28.3991ZM4.93197 29V24.934H3.73008V29H4.93197ZM4.33102 24.3331H1.06302V25.5349H4.33102V24.3331ZM1.66397 24.934V20.982H0.462079V24.934H1.66397ZM1.06302 21.5829H4.33102V20.3811H1.06302V21.5829ZM4.93197 20.982V18.702H3.73008V20.982H4.93197ZM4.33102 18.1011H1.06302V19.3029H4.33102V18.1011ZM1.66397 18.702V14.75H0.462079V18.702H1.66397ZM1.06302 15.3509H4.33102V14.1491H1.06302V15.3509ZM4.93197 14.75V2.096H3.73008V14.75H4.93197ZM4.33102 2.69694H12.273V1.49505H4.33102V2.69694ZM12.273 2.69694C15.1969 2.69694 17.367 3.39688 18.8688 4.71383L19.6612 3.81017C17.8697 2.23912 15.3785 1.49505 12.273 1.49505V2.69694ZM18.8688 4.71383C20.3552 6.01732 21.1341 7.91186 21.1341 10.494H22.336C22.336 7.6548 21.4681 5.39468 19.6612 3.81017L18.8688 4.71383ZM21.1341 10.494C21.1341 13.1264 20.3311 14.9957 18.8119 16.2201L19.5661 17.1559C21.4416 15.6443 22.336 13.3843 22.336 10.494H21.1341ZM18.8162 16.2167C17.2643 17.4443 14.9849 18.1011 11.893 18.1011V19.3029C15.1345 19.3029 17.7191 18.617 19.5619 17.1593L18.8162 16.2167ZM11.589 6.47305H9.72702V7.67494H11.589V6.47305ZM9.12608 7.074V14.75H10.328V7.074H9.12608ZM9.72702 15.3509H11.437V14.1491H9.72702V15.3509ZM11.437 15.3509C13.0419 15.3509 14.3578 15.008 15.2772 14.2177C16.2141 13.4125 16.636 12.2337 16.636 10.798H15.4341C15.4341 11.997 15.0896 12.7942 14.4938 13.3063C13.8806 13.8333 12.8975 14.1491 11.437 14.1491V15.3509ZM16.636 10.798C16.636 9.4416 16.1904 8.32727 15.2343 7.55622L14.4798 8.49178C15.0943 8.98739 15.4341 9.72239 15.4341 10.798H16.636ZM15.2417 7.56234C14.3353 6.80699 13.0885 6.47305 11.589 6.47305V7.67494C12.9269 7.67494 13.8587 7.97434 14.4723 8.48566L15.2417 7.56234Z" fill="#003D9E"/>
<path d="M41.1772 30.0488V50.0811H56.7579" stroke="#003D9E" stroke-width="1.20189" stroke-miterlimit="22.9256"/>
</svg>
