<svg width="65" height="73" viewBox="0 0 65 73" fill="none" xmlns="http://www.w3.org/2000/svg">
<path d="M7.51904 44.6641H19.0554" stroke="#003D9E" stroke-width="1.20189" stroke-miterlimit="22.9256"/>
<path d="M7.51904 33.4473H25.0133" stroke="#003D9E" stroke-width="1.20189" stroke-miterlimit="22.9256"/>
<path d="M7.51904 22.2285H34.1051" stroke="#003D9E" stroke-width="1.20189" stroke-miterlimit="22.9256"/>
<path d="M7.51904 11.0117H34.1051" stroke="#003D9E" stroke-width="1.20189" stroke-miterlimit="22.9256"/>
<path d="M41.4482 71.998C54.0596 71.998 64.2832 61.7745 64.2832 49.1631C64.2832 36.5517 54.0596 26.3281 41.4482 26.3281C28.8369 26.3281 18.6133 36.5517 18.6133 49.1631C18.6133 61.7745 28.8369 71.998 41.4482 71.998Z" stroke="#003D9E" stroke-width="1.20189" stroke-miterlimit="22.9256"/>
<path d="M26.4419 42.2302C26.4419 40.2668 27.0883 38.6757 28.3809 37.4576C29.6979 36.2151 31.289 35.5938 33.1529 35.5938C35.0421 35.5938 36.6327 36.2151 37.9252 37.4576C39.218 38.701 39.8642 40.2916 39.8642 42.2302C39.8642 44.0199 39.2054 45.5736 37.8881 46.8907C36.5706 48.2082 34.9923 48.867 33.1529 48.867C31.2637 48.867 29.6731 48.258 28.3809 47.04C27.0883 45.8219 26.4419 44.2187 26.4419 42.2302V42.2302ZM33.3022 62.3638H26.8147L49.7819 35.5938H56.2694L33.3022 62.3638V62.3638ZM31.9041 40.8882C31.5433 41.236 31.3632 41.671 31.3632 42.1929C31.3632 42.7147 31.5433 43.162 31.9041 43.5352C32.2643 43.9083 32.6808 44.0944 33.1529 44.0944C33.6748 44.0944 34.1037 43.9143 34.4394 43.5536C34.7748 43.1934 34.9426 42.74 34.9426 42.1929C34.9426 41.646 34.7748 41.2047 34.4394 40.8692C34.1037 40.5335 33.6748 40.3658 33.1529 40.3658C32.6808 40.3658 32.2643 40.5404 31.9041 40.8882V40.8882ZM43.0332 56.0999C43.0332 54.1364 43.6794 52.5453 44.9722 51.3278C46.2895 50.0848 47.8803 49.4634 49.7445 49.4634C51.6337 49.4634 53.2243 50.0848 54.5166 51.3278C55.8091 52.5706 56.4555 54.1612 56.4555 56.0999C56.4555 57.8895 55.8031 59.4433 54.4981 60.7603C53.1932 62.0778 51.6084 62.7366 49.7445 62.7366C47.8553 62.7366 46.2648 62.1276 44.9722 60.9096C43.6794 59.6915 43.0332 58.0886 43.0332 56.0999V56.0999ZM47.9549 56.0625C47.9549 56.6096 48.1226 57.063 48.458 57.4238C48.7938 57.7839 49.2226 57.964 49.7445 57.964C50.2416 57.964 50.664 57.7839 51.0123 57.4238C51.3602 57.063 51.5342 56.6096 51.5342 56.0625C51.5342 55.4908 51.3662 55.0435 51.0308 54.7204C50.6953 54.3971 50.2664 54.236 49.7445 54.236C49.2226 54.236 48.7938 54.3971 48.458 54.7204C48.1226 55.0435 47.9549 55.4908 47.9549 56.0625Z" stroke="#003D9E" stroke-width="1.20189" stroke-miterlimit="22.9256"/>
<path fill-rule="evenodd" clip-rule="evenodd" d="M35.753 1H5.8746C3.18256 1 1 3.18256 1 5.8746V49.8007C1 52.4931 3.18256 54.6756 5.8746 54.6756H19.2845C18.8468 52.9104 18.6131 51.0644 18.6131 49.1639C18.6131 36.8272 28.3967 26.7769 40.6281 26.3452V5.8746C40.6281 3.18256 38.4453 1 35.753 1Z" stroke="#003D9E" stroke-width="1.20189" stroke-miterlimit="22.9256"/>
</svg>
