<svg width="68" height="78" viewBox="0 0 68 78" fill="none" xmlns="http://www.w3.org/2000/svg">
<path fill-rule="evenodd" clip-rule="evenodd" d="M3.90644 37.7148H27.3144C26.9097 41.6847 27.7293 45.7387 29.2736 49.7657H24.7699C23.0053 49.7657 21.5619 48.3223 21.5619 46.5577V46.5102V46.0618C21.5619 45.1535 20.8194 44.4109 19.9111 44.4109H18.2139C17.3056 44.4109 16.563 45.1535 16.563 46.0618V46.5102H16.5637V46.5577C16.5637 48.3223 15.1202 49.7657 13.3557 49.7657H4.20899C2.44441 49.7657 1.00098 48.3223 1.00098 46.5577V43.6047V43.2611V40.6203C1.00098 39.0221 2.30823 37.7148 3.90644 37.7148V37.7148Z" stroke="#5B9DFF" stroke-width="1.2" stroke-miterlimit="22.9256"/>
<path fill-rule="evenodd" clip-rule="evenodd" d="M10.5059 22.709H23.0847C24.8493 22.709 26.2927 24.1524 26.2927 25.917V29.213C26.2927 30.9776 24.8493 32.4216 23.0847 32.4216H10.5059C8.74128 32.4216 7.29785 30.9776 7.29785 29.213V25.917C7.29785 24.1524 8.74128 22.709 10.5059 22.709Z" stroke="#5B9DFF" stroke-width="1.2" stroke-miterlimit="22.9256"/>
<path fill-rule="evenodd" clip-rule="evenodd" d="M10.5052 1H48.1814C49.946 1 51.3887 2.44277 51.3887 4.20736V14.3401C51.3887 16.1047 49.946 17.5474 48.1814 17.5474H10.5052C8.74059 17.5474 7.29785 16.1047 7.29785 14.3401V4.20736C7.29785 2.44277 8.74059 1 10.5052 1Z" stroke="#5B9DFF" stroke-width="1.2" stroke-miterlimit="22.9256"/>
<path fill-rule="evenodd" clip-rule="evenodd" d="M46.1932 32.9638C50.3833 32.3497 53.6825 35.5268 54.1566 39.0708C54.7155 43.25 51.6508 46.5723 48.1299 47.067C43.9121 47.6599 40.5564 44.6016 40.0515 41.0274C39.5035 37.1495 42.1051 33.5631 46.1932 32.9638ZM47.1034 77.0007C47.3302 76.8607 47.2871 76.8549 47.4548 76.6403L49.8945 73.7625C50.8028 72.6583 51.7073 71.5258 52.5738 70.3663C57.7295 63.4641 63.0759 55.8559 65.7687 47.3246C68.1314 39.8372 67.0714 33.6152 63.1832 28.2295C55.4118 17.4666 39.0275 17.2919 31.0532 28.1839C24.686 36.881 27.0833 46.5242 32.0431 55.7223C35.3069 61.7746 39.9243 68.481 44.277 73.7214C44.7311 74.2681 45.1982 74.8713 45.6568 75.38C45.8932 75.6421 46.8342 76.8369 47.1034 77.0007V77.0007Z" stroke="#5B9DFF" stroke-width="1.2" stroke-miterlimit="22.9256"/>
</svg>
